%TF.GenerationSoftware,KiCad,Pcbnew,9.0.6*%
%TF.CreationDate,2025-11-29T13:02:54-06:00*%
%TF.ProjectId,Tony's devboard,546f6e79-2773-4206-9465-76626f617264,rev?*%
%TF.SameCoordinates,Original*%
%TF.FileFunction,Paste,Top*%
%TF.FilePolarity,Positive*%
%FSLAX46Y46*%
G04 Gerber Fmt 4.6, Leading zero omitted, Abs format (unit mm)*
G04 Created by KiCad (PCBNEW 9.0.6) date 2025-11-29 13:02:54*
%MOMM*%
%LPD*%
G01*
G04 APERTURE LIST*
G04 Aperture macros list*
%AMRoundRect*
0 Rectangle with rounded corners*
0 $1 Rounding radius*
0 $2 $3 $4 $5 $6 $7 $8 $9 X,Y pos of 4 corners*
0 Add a 4 corners polygon primitive as box body*
4,1,4,$2,$3,$4,$5,$6,$7,$8,$9,$2,$3,0*
0 Add four circle primitives for the rounded corners*
1,1,$1+$1,$2,$3*
1,1,$1+$1,$4,$5*
1,1,$1+$1,$6,$7*
1,1,$1+$1,$8,$9*
0 Add four rect primitives between the rounded corners*
20,1,$1+$1,$2,$3,$4,$5,0*
20,1,$1+$1,$4,$5,$6,$7,0*
20,1,$1+$1,$6,$7,$8,$9,0*
20,1,$1+$1,$8,$9,$2,$3,0*%
G04 Aperture macros list end*
%ADD10RoundRect,0.090000X-0.139000X-0.090000X0.139000X-0.090000X0.139000X0.090000X-0.139000X0.090000X0*%
%ADD11RoundRect,0.090000X0.139000X0.090000X-0.139000X0.090000X-0.139000X-0.090000X0.139000X-0.090000X0*%
%ADD12RoundRect,0.375000X-0.625000X-0.375000X0.625000X-0.375000X0.625000X0.375000X-0.625000X0.375000X0*%
%ADD13RoundRect,0.500000X-0.500000X-1.400000X0.500000X-1.400000X0.500000X1.400000X-0.500000X1.400000X0*%
%ADD14RoundRect,0.090000X0.090000X-0.139000X0.090000X0.139000X-0.090000X0.139000X-0.090000X-0.139000X0*%
%ADD15RoundRect,0.150000X0.425000X-0.150000X0.425000X0.150000X-0.425000X0.150000X-0.425000X-0.150000X0*%
%ADD16RoundRect,0.075000X0.500000X-0.075000X0.500000X0.075000X-0.500000X0.075000X-0.500000X-0.075000X0*%
%ADD17O,2.100000X1.000000*%
%ADD18O,1.800000X1.000000*%
%ADD19RoundRect,0.249999X-0.395001X0.395001X-0.395001X-0.395001X0.395001X-0.395001X0.395001X0.395001X0*%
%ADD20RoundRect,0.050000X-0.050000X0.387500X-0.050000X-0.387500X0.050000X-0.387500X0.050000X0.387500X0*%
%ADD21RoundRect,0.050000X-0.387500X0.050000X-0.387500X-0.050000X0.387500X-0.050000X0.387500X0.050000X0*%
%ADD22RoundRect,0.090000X-0.090000X0.139000X-0.090000X-0.139000X0.090000X-0.139000X0.090000X0.139000X0*%
%ADD23RoundRect,0.250001X-0.799999X1.099999X-0.799999X-1.099999X0.799999X-1.099999X0.799999X1.099999X0*%
%ADD24RoundRect,0.162500X-0.162500X0.650000X-0.162500X-0.650000X0.162500X-0.650000X0.162500X0.650000X0*%
G04 APERTURE END LIST*
D10*
%TO.C,C10*%
X107560000Y-44530000D03*
X108425000Y-44530000D03*
%TD*%
D11*
%TO.C,C9*%
X99587500Y-39880000D03*
X98722500Y-39880000D03*
%TD*%
%TO.C,C14*%
X99582500Y-42220000D03*
X98717500Y-42220000D03*
%TD*%
%TO.C,C15*%
X108395000Y-42780000D03*
X107530000Y-42780000D03*
%TD*%
D12*
%TO.C,U2*%
X132930000Y-41980000D03*
X132930000Y-44280000D03*
D13*
X139230000Y-44280000D03*
D12*
X132930000Y-46580000D03*
%TD*%
D10*
%TO.C,C12*%
X107517500Y-46110000D03*
X108382500Y-46110000D03*
%TD*%
D14*
%TO.C,R3*%
X142200000Y-39885000D03*
X142200000Y-39020000D03*
%TD*%
D11*
%TO.C,C13*%
X133780000Y-48400000D03*
X132915000Y-48400000D03*
%TD*%
%TO.C,C3*%
X99587500Y-45950000D03*
X98722500Y-45950000D03*
%TD*%
D15*
%TO.C,J1*%
X146140000Y-47070000D03*
X146140000Y-46270000D03*
D16*
X146140000Y-45120000D03*
X146140000Y-44120000D03*
X146140000Y-43620000D03*
X146140000Y-42620000D03*
D15*
X146140000Y-41470000D03*
X146140000Y-40670000D03*
X146140000Y-40670000D03*
X146140000Y-41470000D03*
D16*
X146140000Y-42120000D03*
X146140000Y-43120000D03*
X146140000Y-44620000D03*
X146140000Y-45620000D03*
D15*
X146140000Y-46270000D03*
X146140000Y-47070000D03*
D17*
X146715000Y-48190000D03*
D18*
X150895000Y-48190000D03*
D17*
X146715000Y-39550000D03*
D18*
X150895000Y-39550000D03*
%TD*%
D10*
%TO.C,R7*%
X98730000Y-39100000D03*
X99595000Y-39100000D03*
%TD*%
%TO.C,R6*%
X96640000Y-38650000D03*
X97505000Y-38650000D03*
%TD*%
D11*
%TO.C,C4*%
X99607500Y-44980000D03*
X98742500Y-44980000D03*
%TD*%
%TO.C,C8*%
X99597500Y-40670000D03*
X98732500Y-40670000D03*
%TD*%
%TO.C,C5*%
X99612500Y-44070000D03*
X98747500Y-44070000D03*
%TD*%
D19*
%TO.C,U1*%
X115750000Y-43000000D03*
X114150000Y-43000000D03*
X115750000Y-44600000D03*
X114150000Y-44600000D03*
D20*
X117550000Y-40362500D03*
X117150000Y-40362500D03*
X116750000Y-40362500D03*
X116350000Y-40362500D03*
X115950000Y-40362500D03*
X115550000Y-40362500D03*
X115150000Y-40362500D03*
X114750000Y-40362500D03*
X114350000Y-40362500D03*
X113950000Y-40362500D03*
X113550000Y-40362500D03*
X113150000Y-40362500D03*
X112750000Y-40362500D03*
X112350000Y-40362500D03*
D21*
X111512500Y-41200000D03*
X111512500Y-41600000D03*
X111512500Y-42000000D03*
X111512500Y-42400000D03*
X111512500Y-42800000D03*
X111512500Y-43200000D03*
X111512500Y-43600000D03*
X111512500Y-44000000D03*
X111512500Y-44400000D03*
X111512500Y-44800000D03*
X111512500Y-45200000D03*
X111512500Y-45600000D03*
X111512500Y-46000000D03*
X111512500Y-46400000D03*
D20*
X112350000Y-47237500D03*
X112750000Y-47237500D03*
X113150000Y-47237500D03*
X113550000Y-47237500D03*
X113950000Y-47237500D03*
X114350000Y-47237500D03*
X114750000Y-47237500D03*
X115150000Y-47237500D03*
X115550000Y-47237500D03*
X115950000Y-47237500D03*
X116350000Y-47237500D03*
X116750000Y-47237500D03*
X117150000Y-47237500D03*
X117550000Y-47237500D03*
D21*
X118387500Y-46400000D03*
X118387500Y-46000000D03*
X118387500Y-45600000D03*
X118387500Y-45200000D03*
X118387500Y-44800000D03*
X118387500Y-44400000D03*
X118387500Y-44000000D03*
X118387500Y-43600000D03*
X118387500Y-43200000D03*
X118387500Y-42800000D03*
X118387500Y-42400000D03*
X118387500Y-42000000D03*
X118387500Y-41600000D03*
X118387500Y-41200000D03*
%TD*%
D22*
%TO.C,R2*%
X143950000Y-39020000D03*
X143950000Y-39885000D03*
%TD*%
D23*
%TO.C,Y1*%
X102530000Y-41670000D03*
X102530000Y-46970000D03*
X105630000Y-46970000D03*
X105630000Y-41670000D03*
%TD*%
D11*
%TO.C,C1*%
X99647500Y-47630000D03*
X98782500Y-47630000D03*
%TD*%
%TO.C,C6*%
X99587500Y-42970000D03*
X98722500Y-42970000D03*
%TD*%
%TO.C,C17*%
X99642500Y-48400000D03*
X98777500Y-48400000D03*
%TD*%
D10*
%TO.C,R1*%
X142425000Y-48190000D03*
X143290000Y-48190000D03*
%TD*%
D11*
%TO.C,C16*%
X108440000Y-43580000D03*
X107575000Y-43580000D03*
%TD*%
%TO.C,C2*%
X99595000Y-46780000D03*
X98730000Y-46780000D03*
%TD*%
D10*
%TO.C,C11*%
X107535000Y-45300000D03*
X108400000Y-45300000D03*
%TD*%
D11*
%TO.C,C7*%
X99592500Y-41430000D03*
X98727500Y-41430000D03*
%TD*%
D22*
%TO.C,R5*%
X109250000Y-42637500D03*
X109250000Y-43502500D03*
%TD*%
D24*
%TO.C,U3*%
X129465000Y-40532500D03*
X128195000Y-40532500D03*
X126925000Y-40532500D03*
X125655000Y-40532500D03*
X125655000Y-47707500D03*
X126925000Y-47707500D03*
X128195000Y-47707500D03*
X129465000Y-47707500D03*
%TD*%
D14*
%TO.C,R4*%
X141150000Y-39872500D03*
X141150000Y-39007500D03*
%TD*%
M02*
