%TF.GenerationSoftware,KiCad,Pcbnew,9.0.6*%
%TF.CreationDate,2025-11-29T13:02:54-06:00*%
%TF.ProjectId,Tony's devboard,546f6e79-2773-4206-9465-76626f617264,rev?*%
%TF.SameCoordinates,Original*%
%TF.FileFunction,Copper,L2,Bot*%
%TF.FilePolarity,Positive*%
%FSLAX46Y46*%
G04 Gerber Fmt 4.6, Leading zero omitted, Abs format (unit mm)*
G04 Created by KiCad (PCBNEW 9.0.6) date 2025-11-29 13:02:54*
%MOMM*%
%LPD*%
G01*
G04 APERTURE LIST*
G04 Aperture macros list*
%AMRoundRect*
0 Rectangle with rounded corners*
0 $1 Rounding radius*
0 $2 $3 $4 $5 $6 $7 $8 $9 X,Y pos of 4 corners*
0 Add a 4 corners polygon primitive as box body*
4,1,4,$2,$3,$4,$5,$6,$7,$8,$9,$2,$3,0*
0 Add four circle primitives for the rounded corners*
1,1,$1+$1,$2,$3*
1,1,$1+$1,$4,$5*
1,1,$1+$1,$6,$7*
1,1,$1+$1,$8,$9*
0 Add four rect primitives between the rounded corners*
20,1,$1+$1,$2,$3,$4,$5,0*
20,1,$1+$1,$4,$5,$6,$7,0*
20,1,$1+$1,$6,$7,$8,$9,0*
20,1,$1+$1,$8,$9,$2,$3,0*%
G04 Aperture macros list end*
%TA.AperFunction,ComponentPad*%
%ADD10RoundRect,0.250000X0.620000X0.620000X-0.620000X0.620000X-0.620000X-0.620000X0.620000X-0.620000X0*%
%TD*%
%TA.AperFunction,ComponentPad*%
%ADD11C,1.740000*%
%TD*%
%TA.AperFunction,HeatsinkPad*%
%ADD12O,2.100000X1.000000*%
%TD*%
%TA.AperFunction,HeatsinkPad*%
%ADD13O,1.800000X1.000000*%
%TD*%
%TA.AperFunction,ComponentPad*%
%ADD14R,1.700000X1.700000*%
%TD*%
%TA.AperFunction,ComponentPad*%
%ADD15C,1.700000*%
%TD*%
%TA.AperFunction,ComponentPad*%
%ADD16C,2.600000*%
%TD*%
%TA.AperFunction,ConnectorPad*%
%ADD17C,3.800000*%
%TD*%
%TA.AperFunction,ComponentPad*%
%ADD18R,2.250000X2.250000*%
%TD*%
%TA.AperFunction,ComponentPad*%
%ADD19C,2.250000*%
%TD*%
%TA.AperFunction,ViaPad*%
%ADD20C,0.600000*%
%TD*%
%TA.AperFunction,Conductor*%
%ADD21C,0.200000*%
%TD*%
G04 APERTURE END LIST*
D10*
%TO.P,J4,1,Pin_1*%
%TO.N,VBUS*%
X141430000Y-53390000D03*
D11*
%TO.P,J4,2,Pin_2*%
%TO.N,GPIO26_ADC3*%
X138890000Y-53390000D03*
%TO.P,J4,3,Pin_3*%
%TO.N,GND*%
X136350000Y-53390000D03*
%TO.P,J4,4,Pin_4*%
%TO.N,GPIO26_ADC2*%
X133810000Y-53390000D03*
%TO.P,J4,5,Pin_5*%
%TO.N,+3V3*%
X131270000Y-53390000D03*
%TO.P,J4,6,Pin_6*%
%TO.N,GPIO26_ADC1*%
X128730000Y-53390000D03*
%TO.P,J4,7,Pin_7*%
%TO.N,GPIO26_ADC0*%
X126190000Y-53390000D03*
%TO.P,J4,8,Pin_8*%
%TO.N,GND*%
X123650000Y-53390000D03*
%TO.P,J4,9,Pin_9*%
%TO.N,GPIO24*%
X121110000Y-53390000D03*
%TO.P,J4,10,Pin_10*%
%TO.N,GPIO23*%
X118570000Y-53390000D03*
%TO.P,J4,11,Pin_11*%
%TO.N,RUN*%
X116030000Y-53390000D03*
%TO.P,J4,12,Pin_12*%
%TO.N,GPIO22*%
X113490000Y-53390000D03*
%TO.P,J4,13,Pin_13*%
%TO.N,GND*%
X110950000Y-53390000D03*
%TO.P,J4,14,Pin_14*%
%TO.N,GPIO21*%
X108410000Y-53390000D03*
%TO.P,J4,15,Pin_15*%
%TO.N,GPIO20*%
X105870000Y-53390000D03*
%TO.P,J4,16,Pin_16*%
%TO.N,GPIO19*%
X103330000Y-53390000D03*
%TO.P,J4,17,Pin_17*%
%TO.N,GPIO18*%
X100790000Y-53390000D03*
%TO.P,J4,18,Pin_18*%
%TO.N,GND*%
X98250000Y-53390000D03*
%TO.P,J4,19,Pin_19*%
%TO.N,GPIO17*%
X95710000Y-53390000D03*
%TO.P,J4,20,Pin_20*%
%TO.N,GPIO16*%
X93170000Y-53390000D03*
%TD*%
D10*
%TO.P,J3,1,Pin_1*%
%TO.N,GPIO0*%
X141620000Y-35000000D03*
D11*
%TO.P,J3,2,Pin_2*%
%TO.N,GPIO1*%
X139080000Y-35000000D03*
%TO.P,J3,3,Pin_3*%
%TO.N,GND*%
X136540000Y-35000000D03*
%TO.P,J3,4,Pin_4*%
%TO.N,GPIO2*%
X134000000Y-35000000D03*
%TO.P,J3,5,Pin_5*%
%TO.N,GPIO3*%
X131460000Y-35000000D03*
%TO.P,J3,6,Pin_6*%
%TO.N,GPIO4*%
X128920000Y-35000000D03*
%TO.P,J3,7,Pin_7*%
%TO.N,GND*%
X126380000Y-35000000D03*
%TO.P,J3,8,Pin_8*%
%TO.N,GPIO5*%
X123840000Y-35000000D03*
%TO.P,J3,9,Pin_9*%
%TO.N,GPIO6*%
X121300000Y-35000000D03*
%TO.P,J3,10,Pin_10*%
%TO.N,GPIO7*%
X118760000Y-35000000D03*
%TO.P,J3,11,Pin_11*%
%TO.N,GPIO8*%
X116220000Y-35000000D03*
%TO.P,J3,12,Pin_12*%
%TO.N,GPIO9*%
X113680000Y-35000000D03*
%TO.P,J3,13,Pin_13*%
%TO.N,GND*%
X111140000Y-35000000D03*
%TO.P,J3,14,Pin_14*%
%TO.N,GPIO10*%
X108600000Y-35000000D03*
%TO.P,J3,15,Pin_15*%
%TO.N,GPIO11*%
X106060000Y-35000000D03*
%TO.P,J3,16,Pin_16*%
%TO.N,GPIO12*%
X103520000Y-35000000D03*
%TO.P,J3,17,Pin_17*%
%TO.N,GPIO13*%
X100980000Y-35000000D03*
%TO.P,J3,18,Pin_18*%
%TO.N,GND*%
X98440000Y-35000000D03*
%TO.P,J3,19,Pin_19*%
%TO.N,GPIO14*%
X95900000Y-35000000D03*
%TO.P,J3,20,Pin_20*%
%TO.N,GPIO15*%
X93360000Y-35000000D03*
%TD*%
D12*
%TO.P,J1,S1,SHIELD*%
%TO.N,GND*%
X146715000Y-48190000D03*
D13*
X150895000Y-48190000D03*
D12*
X146715000Y-39550000D03*
D13*
X150895000Y-39550000D03*
%TD*%
D14*
%TO.P,J2,1,Pin_1*%
%TO.N,SWCLK*%
X92000000Y-40710000D03*
D15*
%TO.P,J2,2,Pin_2*%
%TO.N,GND*%
X92000000Y-43250000D03*
%TO.P,J2,3,Pin_3*%
%TO.N,SWD*%
X92000000Y-45790000D03*
%TD*%
D16*
%TO.P,REF\u002A\u002A,1*%
%TO.N,N/C*%
X149500000Y-51920000D03*
D17*
X149500000Y-51920000D03*
%TD*%
D18*
%TO.P,SW1,1,1*%
%TO.N,GND*%
X96220000Y-47440000D03*
D19*
%TO.P,SW1,2,2*%
%TO.N,Net-(R6-Pad1)*%
X96220000Y-40940000D03*
%TD*%
D16*
%TO.P,REF\u002A\u002A,1*%
%TO.N,N/C*%
X149500000Y-35940000D03*
D17*
X149500000Y-35940000D03*
%TD*%
D20*
%TO.N,+3V3*%
X121921103Y-44131103D03*
X109827211Y-44214260D03*
X99600000Y-49120000D03*
X130680000Y-51280000D03*
X130400000Y-49650000D03*
%TO.N,GND*%
X110230000Y-43000000D03*
X124460000Y-40120000D03*
X101990000Y-44130000D03*
X139282815Y-39319915D03*
X134824265Y-51015735D03*
%TO.N,+1V1*%
X120780000Y-47210000D03*
X107830000Y-47290000D03*
%TO.N,XIN*%
X105719765Y-44819765D03*
X112650000Y-43470000D03*
%TO.N,SWD*%
X96300000Y-50717900D03*
%TO.N,SWCLK*%
X97120000Y-50316900D03*
%TO.N,Net-(U1-USB_DP)*%
X123100735Y-43800000D03*
X126400000Y-43050000D03*
%TO.N,Net-(U1-USB_DM)*%
X123760735Y-44449265D03*
X126276498Y-43840412D03*
%TO.N,QSPI_SS*%
X118350000Y-39600000D03*
X99080000Y-37907000D03*
%TO.N,QSPI_SD1*%
X127510000Y-42270000D03*
X124260000Y-41400000D03*
%TD*%
D21*
%TO.N,+3V3*%
X130680000Y-49930000D02*
X130400000Y-49650000D01*
X99600000Y-49120000D02*
X104921470Y-49120000D01*
X122080000Y-44200000D02*
X131270000Y-53390000D01*
X104921470Y-49120000D02*
X109827211Y-44214260D01*
X121921103Y-44131103D02*
X121990000Y-44200000D01*
X121990000Y-44200000D02*
X122080000Y-44200000D01*
X130680000Y-51280000D02*
X130680000Y-49930000D01*
%TO.N,GND*%
X146715000Y-48190000D02*
X150895000Y-48190000D01*
X140412730Y-38190000D02*
X145355000Y-38190000D01*
X146715000Y-39550000D02*
X150895000Y-39550000D01*
X98440000Y-38680000D02*
X98440000Y-40736669D01*
X108970000Y-39690000D02*
X101030000Y-39690000D01*
X101990000Y-40650000D02*
X101030000Y-39690000D01*
X98440000Y-35000000D02*
X98440000Y-38680000D01*
X145355000Y-38190000D02*
X146715000Y-39550000D01*
X139282815Y-39319915D02*
X140412730Y-38190000D01*
X136540000Y-35000000D02*
X139730000Y-38190000D01*
X126380000Y-35000000D02*
X126380000Y-38200000D01*
X101030000Y-39690000D02*
X99450000Y-39690000D01*
X126380000Y-38200000D02*
X124460000Y-40120000D01*
X139730000Y-38190000D02*
X140412730Y-38190000D01*
X110230000Y-43000000D02*
X108970000Y-41740000D01*
X98440000Y-40736669D02*
X96220000Y-42956669D01*
X101990000Y-44130000D02*
X101990000Y-40650000D01*
X96220000Y-42956669D02*
X96220000Y-47440000D01*
X134930000Y-51970000D02*
X136350000Y-53390000D01*
X134930000Y-51121470D02*
X134930000Y-51970000D01*
X134824265Y-51015735D02*
X134930000Y-51121470D01*
X99450000Y-39690000D02*
X98440000Y-38680000D01*
X108970000Y-41740000D02*
X108970000Y-39690000D01*
%TO.N,+1V1*%
X120390000Y-47910000D02*
X108450000Y-47910000D01*
X120780000Y-47520000D02*
X120390000Y-47910000D01*
X108450000Y-47910000D02*
X107830000Y-47290000D01*
X120780000Y-47210000D02*
X120780000Y-47520000D01*
%TO.N,XIN*%
X112506740Y-43613260D02*
X106926270Y-43613260D01*
X112650000Y-43470000D02*
X112506740Y-43613260D01*
X106926270Y-43613260D02*
X105719765Y-44819765D01*
%TO.N,SWD*%
X92000000Y-47948616D02*
X94769284Y-50717900D01*
X92000000Y-45790000D02*
X92000000Y-47948616D01*
X94769284Y-50717900D02*
X96300000Y-50717900D01*
%TO.N,SWCLK*%
X93151000Y-41861000D02*
X92000000Y-40710000D01*
X96044900Y-50116900D02*
X93151000Y-47223000D01*
X93151000Y-47223000D02*
X93151000Y-41861000D01*
X97120000Y-50316900D02*
X96920000Y-50116900D01*
X96920000Y-50116900D02*
X96044900Y-50116900D01*
%TO.N,Net-(U1-USB_DP)*%
X123100735Y-43800000D02*
X124997265Y-43800000D01*
X124997265Y-43800000D02*
X125747265Y-43050000D01*
X125747265Y-43050000D02*
X126400000Y-43050000D01*
%TO.N,Net-(U1-USB_DM)*%
X123760735Y-44449265D02*
X125667645Y-44449265D01*
X125667645Y-44449265D02*
X126276498Y-43840412D01*
%TO.N,QSPI_SS*%
X117390000Y-37780000D02*
X99207000Y-37780000D01*
X118350000Y-39600000D02*
X118350000Y-38740000D01*
X118350000Y-38740000D02*
X117390000Y-37780000D01*
X99207000Y-37780000D02*
X99080000Y-37907000D01*
%TO.N,QSPI_SD1*%
X125130000Y-42270000D02*
X127510000Y-42270000D01*
X124260000Y-41400000D02*
X125130000Y-42270000D01*
%TD*%
M02*
