%TF.GenerationSoftware,KiCad,Pcbnew,9.0.6*%
%TF.CreationDate,2025-11-29T13:07:23-06:00*%
%TF.ProjectId,Tony's devboard,546f6e79-2773-4206-9465-76626f617264,rev?*%
%TF.SameCoordinates,Original*%
%TF.FileFunction,Soldermask,Bot*%
%TF.FilePolarity,Negative*%
%FSLAX46Y46*%
G04 Gerber Fmt 4.6, Leading zero omitted, Abs format (unit mm)*
G04 Created by KiCad (PCBNEW 9.0.6) date 2025-11-29 13:07:23*
%MOMM*%
%LPD*%
G01*
G04 APERTURE LIST*
G04 Aperture macros list*
%AMRoundRect*
0 Rectangle with rounded corners*
0 $1 Rounding radius*
0 $2 $3 $4 $5 $6 $7 $8 $9 X,Y pos of 4 corners*
0 Add a 4 corners polygon primitive as box body*
4,1,4,$2,$3,$4,$5,$6,$7,$8,$9,$2,$3,0*
0 Add four circle primitives for the rounded corners*
1,1,$1+$1,$2,$3*
1,1,$1+$1,$4,$5*
1,1,$1+$1,$6,$7*
1,1,$1+$1,$8,$9*
0 Add four rect primitives between the rounded corners*
20,1,$1+$1,$2,$3,$4,$5,0*
20,1,$1+$1,$4,$5,$6,$7,0*
20,1,$1+$1,$6,$7,$8,$9,0*
20,1,$1+$1,$8,$9,$2,$3,0*%
G04 Aperture macros list end*
%ADD10RoundRect,0.250000X0.620000X0.620000X-0.620000X0.620000X-0.620000X-0.620000X0.620000X-0.620000X0*%
%ADD11C,1.740000*%
%ADD12C,0.650000*%
%ADD13O,2.100000X1.000000*%
%ADD14O,1.800000X1.000000*%
%ADD15R,1.700000X1.700000*%
%ADD16C,1.700000*%
%ADD17C,2.600000*%
%ADD18C,3.800000*%
%ADD19R,2.250000X2.250000*%
%ADD20C,2.250000*%
G04 APERTURE END LIST*
D10*
%TO.C,J4*%
X141430000Y-53390000D03*
D11*
X138890000Y-53390000D03*
X136350000Y-53390000D03*
X133810000Y-53390000D03*
X131270000Y-53390000D03*
X128730000Y-53390000D03*
X126190000Y-53390000D03*
X123650000Y-53390000D03*
X121110000Y-53390000D03*
X118570000Y-53390000D03*
X116030000Y-53390000D03*
X113490000Y-53390000D03*
X110950000Y-53390000D03*
X108410000Y-53390000D03*
X105870000Y-53390000D03*
X103330000Y-53390000D03*
X100790000Y-53390000D03*
X98250000Y-53390000D03*
X95710000Y-53390000D03*
X93170000Y-53390000D03*
%TD*%
D10*
%TO.C,J3*%
X141620000Y-35000000D03*
D11*
X139080000Y-35000000D03*
X136540000Y-35000000D03*
X134000000Y-35000000D03*
X131460000Y-35000000D03*
X128920000Y-35000000D03*
X126380000Y-35000000D03*
X123840000Y-35000000D03*
X121300000Y-35000000D03*
X118760000Y-35000000D03*
X116220000Y-35000000D03*
X113680000Y-35000000D03*
X111140000Y-35000000D03*
X108600000Y-35000000D03*
X106060000Y-35000000D03*
X103520000Y-35000000D03*
X100980000Y-35000000D03*
X98440000Y-35000000D03*
X95900000Y-35000000D03*
X93360000Y-35000000D03*
%TD*%
D12*
%TO.C,J1*%
X147215000Y-46760000D03*
X147215000Y-40980000D03*
D13*
X146715000Y-48190000D03*
D14*
X150895000Y-48190000D03*
D13*
X146715000Y-39550000D03*
D14*
X150895000Y-39550000D03*
%TD*%
D15*
%TO.C,J2*%
X92000000Y-40710000D03*
D16*
X92000000Y-43250000D03*
X92000000Y-45790000D03*
%TD*%
D17*
%TO.C,REF\u002A\u002A*%
X149500000Y-51920000D03*
D18*
X149500000Y-51920000D03*
%TD*%
D19*
%TO.C,SW1*%
X96220000Y-47440000D03*
D20*
X96220000Y-40940000D03*
%TD*%
D17*
%TO.C,REF\u002A\u002A*%
X149500000Y-35940000D03*
D18*
X149500000Y-35940000D03*
%TD*%
M02*
