%TF.GenerationSoftware,KiCad,Pcbnew,9.0.6*%
%TF.CreationDate,2025-11-29T13:07:23-06:00*%
%TF.ProjectId,Tony's devboard,546f6e79-2773-4206-9465-76626f617264,rev?*%
%TF.SameCoordinates,Original*%
%TF.FileFunction,Soldermask,Top*%
%TF.FilePolarity,Negative*%
%FSLAX46Y46*%
G04 Gerber Fmt 4.6, Leading zero omitted, Abs format (unit mm)*
G04 Created by KiCad (PCBNEW 9.0.6) date 2025-11-29 13:07:23*
%MOMM*%
%LPD*%
G01*
G04 APERTURE LIST*
G04 Aperture macros list*
%AMRoundRect*
0 Rectangle with rounded corners*
0 $1 Rounding radius*
0 $2 $3 $4 $5 $6 $7 $8 $9 X,Y pos of 4 corners*
0 Add a 4 corners polygon primitive as box body*
4,1,4,$2,$3,$4,$5,$6,$7,$8,$9,$2,$3,0*
0 Add four circle primitives for the rounded corners*
1,1,$1+$1,$2,$3*
1,1,$1+$1,$4,$5*
1,1,$1+$1,$6,$7*
1,1,$1+$1,$8,$9*
0 Add four rect primitives between the rounded corners*
20,1,$1+$1,$2,$3,$4,$5,0*
20,1,$1+$1,$4,$5,$6,$7,0*
20,1,$1+$1,$6,$7,$8,$9,0*
20,1,$1+$1,$8,$9,$2,$3,0*%
G04 Aperture macros list end*
%ADD10RoundRect,0.100000X-0.217500X-0.100000X0.217500X-0.100000X0.217500X0.100000X-0.217500X0.100000X0*%
%ADD11RoundRect,0.100000X0.217500X0.100000X-0.217500X0.100000X-0.217500X-0.100000X0.217500X-0.100000X0*%
%ADD12RoundRect,0.250000X0.620000X0.620000X-0.620000X0.620000X-0.620000X-0.620000X0.620000X-0.620000X0*%
%ADD13C,1.740000*%
%ADD14RoundRect,0.375000X-0.625000X-0.375000X0.625000X-0.375000X0.625000X0.375000X-0.625000X0.375000X0*%
%ADD15RoundRect,0.500000X-0.500000X-1.400000X0.500000X-1.400000X0.500000X1.400000X-0.500000X1.400000X0*%
%ADD16RoundRect,0.100000X0.100000X-0.217500X0.100000X0.217500X-0.100000X0.217500X-0.100000X-0.217500X0*%
%ADD17RoundRect,0.150000X0.425000X-0.150000X0.425000X0.150000X-0.425000X0.150000X-0.425000X-0.150000X0*%
%ADD18RoundRect,0.075000X0.500000X-0.075000X0.500000X0.075000X-0.500000X0.075000X-0.500000X-0.075000X0*%
%ADD19O,2.100000X1.000000*%
%ADD20O,1.800000X1.000000*%
%ADD21R,1.700000X1.700000*%
%ADD22C,1.700000*%
%ADD23C,2.600000*%
%ADD24C,3.800000*%
%ADD25R,2.250000X2.250000*%
%ADD26C,2.250000*%
%ADD27RoundRect,0.050000X-0.050000X0.387500X-0.050000X-0.387500X0.050000X-0.387500X0.050000X0.387500X0*%
%ADD28RoundRect,0.050000X-0.387500X0.050000X-0.387500X-0.050000X0.387500X-0.050000X0.387500X0.050000X0*%
%ADD29R,3.200000X3.200000*%
%ADD30RoundRect,0.100000X-0.100000X0.217500X-0.100000X-0.217500X0.100000X-0.217500X0.100000X0.217500X0*%
%ADD31RoundRect,0.250001X-0.799999X1.099999X-0.799999X-1.099999X0.799999X-1.099999X0.799999X1.099999X0*%
%ADD32RoundRect,0.162500X-0.162500X0.650000X-0.162500X-0.650000X0.162500X-0.650000X0.162500X0.650000X0*%
G04 APERTURE END LIST*
D10*
%TO.C,C10*%
X107585000Y-44530000D03*
X108400000Y-44530000D03*
%TD*%
D11*
%TO.C,C9*%
X99562500Y-39880000D03*
X98747500Y-39880000D03*
%TD*%
D12*
%TO.C,J4*%
X141430000Y-53390000D03*
D13*
X138890000Y-53390000D03*
X136350000Y-53390000D03*
X133810000Y-53390000D03*
X131270000Y-53390000D03*
X128730000Y-53390000D03*
X126190000Y-53390000D03*
X123650000Y-53390000D03*
X121110000Y-53390000D03*
X118570000Y-53390000D03*
X116030000Y-53390000D03*
X113490000Y-53390000D03*
X110950000Y-53390000D03*
X108410000Y-53390000D03*
X105870000Y-53390000D03*
X103330000Y-53390000D03*
X100790000Y-53390000D03*
X98250000Y-53390000D03*
X95710000Y-53390000D03*
X93170000Y-53390000D03*
%TD*%
D11*
%TO.C,C14*%
X99557500Y-42220000D03*
X98742500Y-42220000D03*
%TD*%
%TO.C,C15*%
X108370000Y-42780000D03*
X107555000Y-42780000D03*
%TD*%
D14*
%TO.C,U2*%
X132930000Y-41980000D03*
X132930000Y-44280000D03*
D15*
X139230000Y-44280000D03*
D14*
X132930000Y-46580000D03*
%TD*%
D10*
%TO.C,C12*%
X107542500Y-46110000D03*
X108357500Y-46110000D03*
%TD*%
D12*
%TO.C,J3*%
X141620000Y-35000000D03*
D13*
X139080000Y-35000000D03*
X136540000Y-35000000D03*
X134000000Y-35000000D03*
X131460000Y-35000000D03*
X128920000Y-35000000D03*
X126380000Y-35000000D03*
X123840000Y-35000000D03*
X121300000Y-35000000D03*
X118760000Y-35000000D03*
X116220000Y-35000000D03*
X113680000Y-35000000D03*
X111140000Y-35000000D03*
X108600000Y-35000000D03*
X106060000Y-35000000D03*
X103520000Y-35000000D03*
X100980000Y-35000000D03*
X98440000Y-35000000D03*
X95900000Y-35000000D03*
X93360000Y-35000000D03*
%TD*%
D16*
%TO.C,R3*%
X142200000Y-39860000D03*
X142200000Y-39045000D03*
%TD*%
D11*
%TO.C,C13*%
X133755000Y-48400000D03*
X132940000Y-48400000D03*
%TD*%
%TO.C,C3*%
X99562500Y-45950000D03*
X98747500Y-45950000D03*
%TD*%
D17*
%TO.C,J1*%
X146140000Y-47070000D03*
X146140000Y-46270000D03*
D18*
X146140000Y-45120000D03*
X146140000Y-44120000D03*
X146140000Y-43620000D03*
X146140000Y-42620000D03*
D17*
X146140000Y-41470000D03*
X146140000Y-40670000D03*
X146140000Y-40670000D03*
X146140000Y-41470000D03*
D18*
X146140000Y-42120000D03*
X146140000Y-43120000D03*
X146140000Y-44620000D03*
X146140000Y-45620000D03*
D17*
X146140000Y-46270000D03*
X146140000Y-47070000D03*
D19*
X146715000Y-48190000D03*
D20*
X150895000Y-48190000D03*
D19*
X146715000Y-39550000D03*
D20*
X150895000Y-39550000D03*
%TD*%
D10*
%TO.C,R7*%
X98755000Y-39100000D03*
X99570000Y-39100000D03*
%TD*%
D21*
%TO.C,J2*%
X92000000Y-40710000D03*
D22*
X92000000Y-43250000D03*
X92000000Y-45790000D03*
%TD*%
D10*
%TO.C,R6*%
X96665000Y-38650000D03*
X97480000Y-38650000D03*
%TD*%
D23*
%TO.C,REF\u002A\u002A*%
X149500000Y-51920000D03*
D24*
X149500000Y-51920000D03*
%TD*%
D11*
%TO.C,C4*%
X99582500Y-44980000D03*
X98767500Y-44980000D03*
%TD*%
D25*
%TO.C,SW1*%
X96220000Y-47440000D03*
D26*
X96220000Y-40940000D03*
%TD*%
D11*
%TO.C,C8*%
X99572500Y-40670000D03*
X98757500Y-40670000D03*
%TD*%
%TO.C,C5*%
X99587500Y-44070000D03*
X98772500Y-44070000D03*
%TD*%
D27*
%TO.C,U1*%
X117550000Y-40362500D03*
X117150000Y-40362500D03*
X116750000Y-40362500D03*
X116350000Y-40362500D03*
X115950000Y-40362500D03*
X115550000Y-40362500D03*
X115150000Y-40362500D03*
X114750000Y-40362500D03*
X114350000Y-40362500D03*
X113950000Y-40362500D03*
X113550000Y-40362500D03*
X113150000Y-40362500D03*
X112750000Y-40362500D03*
X112350000Y-40362500D03*
D28*
X111512500Y-41200000D03*
X111512500Y-41600000D03*
X111512500Y-42000000D03*
X111512500Y-42400000D03*
X111512500Y-42800000D03*
X111512500Y-43200000D03*
X111512500Y-43600000D03*
X111512500Y-44000000D03*
X111512500Y-44400000D03*
X111512500Y-44800000D03*
X111512500Y-45200000D03*
X111512500Y-45600000D03*
X111512500Y-46000000D03*
X111512500Y-46400000D03*
D27*
X112350000Y-47237500D03*
X112750000Y-47237500D03*
X113150000Y-47237500D03*
X113550000Y-47237500D03*
X113950000Y-47237500D03*
X114350000Y-47237500D03*
X114750000Y-47237500D03*
X115150000Y-47237500D03*
X115550000Y-47237500D03*
X115950000Y-47237500D03*
X116350000Y-47237500D03*
X116750000Y-47237500D03*
X117150000Y-47237500D03*
X117550000Y-47237500D03*
D28*
X118387500Y-46400000D03*
X118387500Y-46000000D03*
X118387500Y-45600000D03*
X118387500Y-45200000D03*
X118387500Y-44800000D03*
X118387500Y-44400000D03*
X118387500Y-44000000D03*
X118387500Y-43600000D03*
X118387500Y-43200000D03*
X118387500Y-42800000D03*
X118387500Y-42400000D03*
X118387500Y-42000000D03*
X118387500Y-41600000D03*
X118387500Y-41200000D03*
D29*
X114950000Y-43800000D03*
%TD*%
D30*
%TO.C,R2*%
X143950000Y-39045000D03*
X143950000Y-39860000D03*
%TD*%
D31*
%TO.C,Y1*%
X102530000Y-41670000D03*
X102530000Y-46970000D03*
X105630000Y-46970000D03*
X105630000Y-41670000D03*
%TD*%
D23*
%TO.C,REF\u002A\u002A*%
X149500000Y-35940000D03*
D24*
X149500000Y-35940000D03*
%TD*%
D11*
%TO.C,C1*%
X99622500Y-47630000D03*
X98807500Y-47630000D03*
%TD*%
%TO.C,C6*%
X99562500Y-42970000D03*
X98747500Y-42970000D03*
%TD*%
%TO.C,C17*%
X99617500Y-48400000D03*
X98802500Y-48400000D03*
%TD*%
D10*
%TO.C,R1*%
X142450000Y-48190000D03*
X143265000Y-48190000D03*
%TD*%
D11*
%TO.C,C16*%
X108415000Y-43580000D03*
X107600000Y-43580000D03*
%TD*%
%TO.C,C2*%
X99570000Y-46780000D03*
X98755000Y-46780000D03*
%TD*%
D10*
%TO.C,C11*%
X107560000Y-45300000D03*
X108375000Y-45300000D03*
%TD*%
D11*
%TO.C,C7*%
X99567500Y-41430000D03*
X98752500Y-41430000D03*
%TD*%
D30*
%TO.C,R5*%
X109250000Y-42662500D03*
X109250000Y-43477500D03*
%TD*%
D32*
%TO.C,U3*%
X129465000Y-40532500D03*
X128195000Y-40532500D03*
X126925000Y-40532500D03*
X125655000Y-40532500D03*
X125655000Y-47707500D03*
X126925000Y-47707500D03*
X128195000Y-47707500D03*
X129465000Y-47707500D03*
%TD*%
D16*
%TO.C,R4*%
X141150000Y-39847500D03*
X141150000Y-39032500D03*
%TD*%
M02*
