M48
; DRILL file {KiCad 9.0.6} date 2025-11-29T13:07:23-0600
; FORMAT={-:-/ absolute / inch / decimal}
; #@! TF.CreationDate,2025-11-29T13:07:23-06:00
; #@! TF.GenerationSoftware,Kicad,Pcbnew,9.0.6
; #@! TF.FileFunction,Plated,1,2,PTH
FMAT,2
INCH
; #@! TA.AperFunction,Plated,PTH,ViaDrill
T1C0.0118
; #@! TA.AperFunction,Plated,PTH,ComponentDrill
T2C0.0236
; #@! TA.AperFunction,Plated,PTH,ComponentDrill
T3C0.0394
; #@! TA.AperFunction,Plated,PTH,ComponentDrill
T4C0.0429
; #@! TA.AperFunction,Plated,PTH,ComponentDrill
T5C0.0512
; #@! TA.AperFunction,Plated,PTH,ComponentDrill
T6C0.0866
%
G90
G05
T1
X3.7913Y-1.9968
X3.8236Y-1.981
X3.9008Y-1.4924
X3.9213Y-1.9339
X4.0154Y-1.7374
X4.1622Y-1.7646
X4.2453Y-1.8618
X4.3239Y-1.7407
X4.3398Y-1.6929
X4.435Y-1.7114
X4.6594Y-1.5591
X4.7551Y-1.8587
X4.8Y-1.7374
X4.8465Y-1.7244
X4.8725Y-1.75
X4.8921Y-1.6299
X4.9Y-1.5795
X4.9715Y-1.726
X4.9764Y-1.6949
X5.0201Y-1.6642
X5.1339Y-1.9547
X5.1449Y-2.0189
X5.308Y-2.0085
X5.4836Y-1.548
T3
X3.622Y-1.6028
X3.622Y-1.7028
X3.622Y-1.8028
T4
X3.6681Y-2.102
X3.6756Y-1.378
X3.7681Y-2.102
X3.7756Y-1.378
X3.8681Y-2.102
X3.8756Y-1.378
X3.9681Y-2.102
X3.9756Y-1.378
X4.0681Y-2.102
X4.0756Y-1.378
X4.1681Y-2.102
X4.1756Y-1.378
X4.2681Y-2.102
X4.2756Y-1.378
X4.3681Y-2.102
X4.3756Y-1.378
X4.4681Y-2.102
X4.4756Y-1.378
X4.5681Y-2.102
X4.5756Y-1.378
X4.6681Y-2.102
X4.6756Y-1.378
X4.7681Y-2.102
X4.7756Y-1.378
X4.8681Y-2.102
X4.8756Y-1.378
X4.9681Y-2.102
X4.9756Y-1.378
X5.0681Y-2.102
X5.0756Y-1.378
X5.1681Y-2.102
X5.1756Y-1.378
X5.2681Y-2.102
X5.2756Y-1.378
X5.3681Y-2.102
X5.3756Y-1.378
X5.4681Y-2.102
X5.4756Y-1.378
X5.5681Y-2.102
X5.5756Y-1.378
T5
X3.7882Y-1.6118
X3.7882Y-1.8677
T6
X5.8858Y-1.415
X5.8858Y-2.0441
T2
G00X5.7545Y-1.5571
M15
G01X5.7978Y-1.5571
M16
G05
G00X5.7545Y-1.8972
M15
G01X5.7978Y-1.8972
M16
G05
G00X5.925Y-1.5571
M15
G01X5.9565Y-1.5571
M16
G05
G00X5.925Y-1.8972
M15
G01X5.9565Y-1.8972
M16
G05
M30
