M48
; DRILL file {KiCad 9.0.6} date 2025-11-29T13:03:05-0600
; FORMAT={-:-/ absolute / metric / decimal}
; #@! TF.CreationDate,2025-11-29T13:03:05-06:00
; #@! TF.GenerationSoftware,Kicad,Pcbnew,9.0.6
; #@! TF.FileFunction,Plated,1,2,PTH
FMAT,2
METRIC
; #@! TA.AperFunction,Plated,PTH,ViaDrill
T1C0.300
; #@! TA.AperFunction,Plated,PTH,ComponentDrill
T2C0.600
; #@! TA.AperFunction,Plated,PTH,ComponentDrill
T3C1.000
; #@! TA.AperFunction,Plated,PTH,ComponentDrill
T4C1.090
; #@! TA.AperFunction,Plated,PTH,ComponentDrill
T5C1.300
; #@! TA.AperFunction,Plated,PTH,ComponentDrill
T6C2.200
%
G90
G05
T1
X96.3Y-50.718
X97.12Y-50.317
X99.08Y-37.907
X99.6Y-49.12
X101.99Y-44.13
X105.72Y-44.82
X107.83Y-47.29
X109.827Y-44.214
X110.23Y-43.0
X112.65Y-43.47
X118.35Y-39.6
X120.78Y-47.21
X121.921Y-44.131
X123.101Y-43.8
X123.761Y-44.449
X124.26Y-41.4
X124.46Y-40.12
X126.276Y-43.84
X126.4Y-43.05
X127.51Y-42.27
X130.4Y-49.65
X130.68Y-51.28
X134.824Y-51.016
X139.283Y-39.32
T3
X92.0Y-40.71
X92.0Y-43.25
X92.0Y-45.79
T4
X93.17Y-53.39
X93.36Y-35.0
X95.71Y-53.39
X95.9Y-35.0
X98.25Y-53.39
X98.44Y-35.0
X100.79Y-53.39
X100.98Y-35.0
X103.33Y-53.39
X103.52Y-35.0
X105.87Y-53.39
X106.06Y-35.0
X108.41Y-53.39
X108.6Y-35.0
X110.95Y-53.39
X111.14Y-35.0
X113.49Y-53.39
X113.68Y-35.0
X116.03Y-53.39
X116.22Y-35.0
X118.57Y-53.39
X118.76Y-35.0
X121.11Y-53.39
X121.3Y-35.0
X123.65Y-53.39
X123.84Y-35.0
X126.19Y-53.39
X126.38Y-35.0
X128.73Y-53.39
X128.92Y-35.0
X131.27Y-53.39
X131.46Y-35.0
X133.81Y-53.39
X134.0Y-35.0
X136.35Y-53.39
X136.54Y-35.0
X138.89Y-53.39
X139.08Y-35.0
X141.43Y-53.39
X141.62Y-35.0
T5
X96.22Y-40.94
X96.22Y-47.44
T6
X149.5Y-35.94
X149.5Y-51.92
T2
G00X146.165Y-39.55
M15
G01X147.265Y-39.55
M16
G05
G00X146.165Y-48.19
M15
G01X147.265Y-48.19
M16
G05
G00X150.495Y-39.55
M15
G01X151.295Y-39.55
M16
G05
G00X150.495Y-48.19
M15
G01X151.295Y-48.19
M16
G05
M30
