%TF.GenerationSoftware,KiCad,Pcbnew,9.0.6*%
%TF.CreationDate,2025-11-29T13:02:53-06:00*%
%TF.ProjectId,Tony's devboard,546f6e79-2773-4206-9465-76626f617264,rev?*%
%TF.SameCoordinates,Original*%
%TF.FileFunction,Copper,L1,Top*%
%TF.FilePolarity,Positive*%
%FSLAX46Y46*%
G04 Gerber Fmt 4.6, Leading zero omitted, Abs format (unit mm)*
G04 Created by KiCad (PCBNEW 9.0.6) date 2025-11-29 13:02:53*
%MOMM*%
%LPD*%
G01*
G04 APERTURE LIST*
G04 Aperture macros list*
%AMRoundRect*
0 Rectangle with rounded corners*
0 $1 Rounding radius*
0 $2 $3 $4 $5 $6 $7 $8 $9 X,Y pos of 4 corners*
0 Add a 4 corners polygon primitive as box body*
4,1,4,$2,$3,$4,$5,$6,$7,$8,$9,$2,$3,0*
0 Add four circle primitives for the rounded corners*
1,1,$1+$1,$2,$3*
1,1,$1+$1,$4,$5*
1,1,$1+$1,$6,$7*
1,1,$1+$1,$8,$9*
0 Add four rect primitives between the rounded corners*
20,1,$1+$1,$2,$3,$4,$5,0*
20,1,$1+$1,$4,$5,$6,$7,0*
20,1,$1+$1,$6,$7,$8,$9,0*
20,1,$1+$1,$8,$9,$2,$3,0*%
G04 Aperture macros list end*
%TA.AperFunction,SMDPad,CuDef*%
%ADD10RoundRect,0.100000X-0.217500X-0.100000X0.217500X-0.100000X0.217500X0.100000X-0.217500X0.100000X0*%
%TD*%
%TA.AperFunction,SMDPad,CuDef*%
%ADD11RoundRect,0.100000X0.217500X0.100000X-0.217500X0.100000X-0.217500X-0.100000X0.217500X-0.100000X0*%
%TD*%
%TA.AperFunction,ComponentPad*%
%ADD12RoundRect,0.250000X0.620000X0.620000X-0.620000X0.620000X-0.620000X-0.620000X0.620000X-0.620000X0*%
%TD*%
%TA.AperFunction,ComponentPad*%
%ADD13C,1.740000*%
%TD*%
%TA.AperFunction,SMDPad,CuDef*%
%ADD14RoundRect,0.375000X-0.625000X-0.375000X0.625000X-0.375000X0.625000X0.375000X-0.625000X0.375000X0*%
%TD*%
%TA.AperFunction,SMDPad,CuDef*%
%ADD15RoundRect,0.500000X-0.500000X-1.400000X0.500000X-1.400000X0.500000X1.400000X-0.500000X1.400000X0*%
%TD*%
%TA.AperFunction,SMDPad,CuDef*%
%ADD16RoundRect,0.100000X0.100000X-0.217500X0.100000X0.217500X-0.100000X0.217500X-0.100000X-0.217500X0*%
%TD*%
%TA.AperFunction,SMDPad,CuDef*%
%ADD17RoundRect,0.150000X0.425000X-0.150000X0.425000X0.150000X-0.425000X0.150000X-0.425000X-0.150000X0*%
%TD*%
%TA.AperFunction,SMDPad,CuDef*%
%ADD18RoundRect,0.075000X0.500000X-0.075000X0.500000X0.075000X-0.500000X0.075000X-0.500000X-0.075000X0*%
%TD*%
%TA.AperFunction,HeatsinkPad*%
%ADD19O,2.100000X1.000000*%
%TD*%
%TA.AperFunction,HeatsinkPad*%
%ADD20O,1.800000X1.000000*%
%TD*%
%TA.AperFunction,ComponentPad*%
%ADD21R,1.700000X1.700000*%
%TD*%
%TA.AperFunction,ComponentPad*%
%ADD22C,1.700000*%
%TD*%
%TA.AperFunction,ComponentPad*%
%ADD23C,2.600000*%
%TD*%
%TA.AperFunction,ConnectorPad*%
%ADD24C,3.800000*%
%TD*%
%TA.AperFunction,ComponentPad*%
%ADD25R,2.250000X2.250000*%
%TD*%
%TA.AperFunction,ComponentPad*%
%ADD26C,2.250000*%
%TD*%
%TA.AperFunction,SMDPad,CuDef*%
%ADD27RoundRect,0.050000X-0.050000X0.387500X-0.050000X-0.387500X0.050000X-0.387500X0.050000X0.387500X0*%
%TD*%
%TA.AperFunction,SMDPad,CuDef*%
%ADD28RoundRect,0.050000X-0.387500X0.050000X-0.387500X-0.050000X0.387500X-0.050000X0.387500X0.050000X0*%
%TD*%
%TA.AperFunction,HeatsinkPad*%
%ADD29R,3.200000X3.200000*%
%TD*%
%TA.AperFunction,SMDPad,CuDef*%
%ADD30RoundRect,0.100000X-0.100000X0.217500X-0.100000X-0.217500X0.100000X-0.217500X0.100000X0.217500X0*%
%TD*%
%TA.AperFunction,SMDPad,CuDef*%
%ADD31RoundRect,0.250001X-0.799999X1.099999X-0.799999X-1.099999X0.799999X-1.099999X0.799999X1.099999X0*%
%TD*%
%TA.AperFunction,SMDPad,CuDef*%
%ADD32RoundRect,0.162500X-0.162500X0.650000X-0.162500X-0.650000X0.162500X-0.650000X0.162500X0.650000X0*%
%TD*%
%TA.AperFunction,ViaPad*%
%ADD33C,0.600000*%
%TD*%
%TA.AperFunction,Conductor*%
%ADD34C,0.200000*%
%TD*%
G04 APERTURE END LIST*
D10*
%TO.P,C10,1*%
%TO.N,+1V1*%
X107585000Y-44530000D03*
%TO.P,C10,2*%
%TO.N,GND*%
X108400000Y-44530000D03*
%TD*%
D11*
%TO.P,C9,1*%
%TO.N,+3V3*%
X99562500Y-39880000D03*
%TO.P,C9,2*%
%TO.N,GND*%
X98747500Y-39880000D03*
%TD*%
D12*
%TO.P,J4,1,Pin_1*%
%TO.N,VBUS*%
X141430000Y-53390000D03*
D13*
%TO.P,J4,2,Pin_2*%
%TO.N,GPIO26_ADC3*%
X138890000Y-53390000D03*
%TO.P,J4,3,Pin_3*%
%TO.N,GND*%
X136350000Y-53390000D03*
%TO.P,J4,4,Pin_4*%
%TO.N,GPIO26_ADC2*%
X133810000Y-53390000D03*
%TO.P,J4,5,Pin_5*%
%TO.N,+3V3*%
X131270000Y-53390000D03*
%TO.P,J4,6,Pin_6*%
%TO.N,GPIO26_ADC1*%
X128730000Y-53390000D03*
%TO.P,J4,7,Pin_7*%
%TO.N,GPIO26_ADC0*%
X126190000Y-53390000D03*
%TO.P,J4,8,Pin_8*%
%TO.N,GND*%
X123650000Y-53390000D03*
%TO.P,J4,9,Pin_9*%
%TO.N,GPIO24*%
X121110000Y-53390000D03*
%TO.P,J4,10,Pin_10*%
%TO.N,GPIO23*%
X118570000Y-53390000D03*
%TO.P,J4,11,Pin_11*%
%TO.N,RUN*%
X116030000Y-53390000D03*
%TO.P,J4,12,Pin_12*%
%TO.N,GPIO22*%
X113490000Y-53390000D03*
%TO.P,J4,13,Pin_13*%
%TO.N,GND*%
X110950000Y-53390000D03*
%TO.P,J4,14,Pin_14*%
%TO.N,GPIO21*%
X108410000Y-53390000D03*
%TO.P,J4,15,Pin_15*%
%TO.N,GPIO20*%
X105870000Y-53390000D03*
%TO.P,J4,16,Pin_16*%
%TO.N,GPIO19*%
X103330000Y-53390000D03*
%TO.P,J4,17,Pin_17*%
%TO.N,GPIO18*%
X100790000Y-53390000D03*
%TO.P,J4,18,Pin_18*%
%TO.N,GND*%
X98250000Y-53390000D03*
%TO.P,J4,19,Pin_19*%
%TO.N,GPIO17*%
X95710000Y-53390000D03*
%TO.P,J4,20,Pin_20*%
%TO.N,GPIO16*%
X93170000Y-53390000D03*
%TD*%
D11*
%TO.P,C14,1*%
%TO.N,+3V3*%
X99557500Y-42220000D03*
%TO.P,C14,2*%
%TO.N,GND*%
X98742500Y-42220000D03*
%TD*%
%TO.P,C15,1*%
%TO.N,GND*%
X108370000Y-42780000D03*
%TO.P,C15,2*%
%TO.N,Net-(C15-Pad2)*%
X107555000Y-42780000D03*
%TD*%
D14*
%TO.P,U2,1,GND*%
%TO.N,GND*%
X132930000Y-41980000D03*
%TO.P,U2,2,VO*%
%TO.N,+3V3*%
X132930000Y-44280000D03*
D15*
X139230000Y-44280000D03*
D14*
%TO.P,U2,3,VI*%
%TO.N,VBUS*%
X132930000Y-46580000D03*
%TD*%
D10*
%TO.P,C12,1*%
%TO.N,+1V1*%
X107542500Y-46110000D03*
%TO.P,C12,2*%
%TO.N,GND*%
X108357500Y-46110000D03*
%TD*%
D12*
%TO.P,J3,1,Pin_1*%
%TO.N,GPIO0*%
X141620000Y-35000000D03*
D13*
%TO.P,J3,2,Pin_2*%
%TO.N,GPIO1*%
X139080000Y-35000000D03*
%TO.P,J3,3,Pin_3*%
%TO.N,GND*%
X136540000Y-35000000D03*
%TO.P,J3,4,Pin_4*%
%TO.N,GPIO2*%
X134000000Y-35000000D03*
%TO.P,J3,5,Pin_5*%
%TO.N,GPIO3*%
X131460000Y-35000000D03*
%TO.P,J3,6,Pin_6*%
%TO.N,GPIO4*%
X128920000Y-35000000D03*
%TO.P,J3,7,Pin_7*%
%TO.N,GND*%
X126380000Y-35000000D03*
%TO.P,J3,8,Pin_8*%
%TO.N,GPIO5*%
X123840000Y-35000000D03*
%TO.P,J3,9,Pin_9*%
%TO.N,GPIO6*%
X121300000Y-35000000D03*
%TO.P,J3,10,Pin_10*%
%TO.N,GPIO7*%
X118760000Y-35000000D03*
%TO.P,J3,11,Pin_11*%
%TO.N,GPIO8*%
X116220000Y-35000000D03*
%TO.P,J3,12,Pin_12*%
%TO.N,GPIO9*%
X113680000Y-35000000D03*
%TO.P,J3,13,Pin_13*%
%TO.N,GND*%
X111140000Y-35000000D03*
%TO.P,J3,14,Pin_14*%
%TO.N,GPIO10*%
X108600000Y-35000000D03*
%TO.P,J3,15,Pin_15*%
%TO.N,GPIO11*%
X106060000Y-35000000D03*
%TO.P,J3,16,Pin_16*%
%TO.N,GPIO12*%
X103520000Y-35000000D03*
%TO.P,J3,17,Pin_17*%
%TO.N,GPIO13*%
X100980000Y-35000000D03*
%TO.P,J3,18,Pin_18*%
%TO.N,GND*%
X98440000Y-35000000D03*
%TO.P,J3,19,Pin_19*%
%TO.N,GPIO14*%
X95900000Y-35000000D03*
%TO.P,J3,20,Pin_20*%
%TO.N,GPIO15*%
X93360000Y-35000000D03*
%TD*%
D16*
%TO.P,R3,1*%
%TO.N,USB_D+*%
X142200000Y-39860000D03*
%TO.P,R3,2*%
%TO.N,Net-(U1-USB_DP)*%
X142200000Y-39045000D03*
%TD*%
D11*
%TO.P,C13,1*%
%TO.N,VBUS*%
X133755000Y-48400000D03*
%TO.P,C13,2*%
%TO.N,GND*%
X132940000Y-48400000D03*
%TD*%
%TO.P,C3,1*%
%TO.N,+3V3*%
X99562500Y-45950000D03*
%TO.P,C3,2*%
%TO.N,GND*%
X98747500Y-45950000D03*
%TD*%
D17*
%TO.P,J1,A1,GND*%
%TO.N,GND*%
X146140000Y-47070000D03*
%TO.P,J1,A4,VBUS*%
%TO.N,VBUS*%
X146140000Y-46270000D03*
D18*
%TO.P,J1,A5,CC1*%
%TO.N,Net-(J1-CC1)*%
X146140000Y-45120000D03*
%TO.P,J1,A6,D+*%
%TO.N,USB_D+*%
X146140000Y-44120000D03*
%TO.P,J1,A7,D-*%
%TO.N,USB_D-*%
X146140000Y-43620000D03*
%TO.P,J1,A8*%
%TO.N,N/C*%
X146140000Y-42620000D03*
D17*
%TO.P,J1,A9,VBUS*%
%TO.N,VBUS*%
X146140000Y-41470000D03*
%TO.P,J1,A12,GND*%
%TO.N,GND*%
X146140000Y-40670000D03*
%TO.P,J1,B1,GND*%
X146140000Y-40670000D03*
%TO.P,J1,B4,VBUS*%
%TO.N,VBUS*%
X146140000Y-41470000D03*
D18*
%TO.P,J1,B5,CC2*%
%TO.N,Net-(J1-CC2)*%
X146140000Y-42120000D03*
%TO.P,J1,B6,D+*%
%TO.N,USB_D+*%
X146140000Y-43120000D03*
%TO.P,J1,B7,D-*%
%TO.N,USB_D-*%
X146140000Y-44620000D03*
%TO.P,J1,B8*%
%TO.N,N/C*%
X146140000Y-45620000D03*
D17*
%TO.P,J1,B9,VBUS*%
%TO.N,VBUS*%
X146140000Y-46270000D03*
%TO.P,J1,B12,GND*%
%TO.N,GND*%
X146140000Y-47070000D03*
D19*
%TO.P,J1,S1,SHIELD*%
X146715000Y-48190000D03*
D20*
X150895000Y-48190000D03*
D19*
X146715000Y-39550000D03*
D20*
X150895000Y-39550000D03*
%TD*%
D10*
%TO.P,R7,1*%
%TO.N,QSPI_SS*%
X98755000Y-39100000D03*
%TO.P,R7,2*%
%TO.N,+3V3*%
X99570000Y-39100000D03*
%TD*%
D21*
%TO.P,J2,1,Pin_1*%
%TO.N,SWCLK*%
X92000000Y-40710000D03*
D22*
%TO.P,J2,2,Pin_2*%
%TO.N,GND*%
X92000000Y-43250000D03*
%TO.P,J2,3,Pin_3*%
%TO.N,SWD*%
X92000000Y-45790000D03*
%TD*%
D10*
%TO.P,R6,1*%
%TO.N,Net-(R6-Pad1)*%
X96665000Y-38650000D03*
%TO.P,R6,2*%
%TO.N,QSPI_SS*%
X97480000Y-38650000D03*
%TD*%
D23*
%TO.P,REF\u002A\u002A,1*%
%TO.N,N/C*%
X149500000Y-51920000D03*
D24*
X149500000Y-51920000D03*
%TD*%
D11*
%TO.P,C4,1*%
%TO.N,+3V3*%
X99582500Y-44980000D03*
%TO.P,C4,2*%
%TO.N,GND*%
X98767500Y-44980000D03*
%TD*%
D25*
%TO.P,SW1,1,1*%
%TO.N,GND*%
X96220000Y-47440000D03*
D26*
%TO.P,SW1,2,2*%
%TO.N,Net-(R6-Pad1)*%
X96220000Y-40940000D03*
%TD*%
D11*
%TO.P,C8,1*%
%TO.N,+3V3*%
X99572500Y-40670000D03*
%TO.P,C8,2*%
%TO.N,GND*%
X98757500Y-40670000D03*
%TD*%
%TO.P,C5,1*%
%TO.N,+3V3*%
X99587500Y-44070000D03*
%TO.P,C5,2*%
%TO.N,GND*%
X98772500Y-44070000D03*
%TD*%
D27*
%TO.P,U1,1,IOVDD*%
%TO.N,+3V3*%
X117550000Y-40362500D03*
%TO.P,U1,2,GPIO0*%
%TO.N,GPIO0*%
X117150000Y-40362500D03*
%TO.P,U1,3,GPIO1*%
%TO.N,GPIO1*%
X116750000Y-40362500D03*
%TO.P,U1,4,GPIO2*%
%TO.N,GPIO2*%
X116350000Y-40362500D03*
%TO.P,U1,5,GPIO3*%
%TO.N,GPIO3*%
X115950000Y-40362500D03*
%TO.P,U1,6,GPIO4*%
%TO.N,GPIO4*%
X115550000Y-40362500D03*
%TO.P,U1,7,GPIO5*%
%TO.N,GPIO5*%
X115150000Y-40362500D03*
%TO.P,U1,8,GPIO6*%
%TO.N,GPIO6*%
X114750000Y-40362500D03*
%TO.P,U1,9,GPIO7*%
%TO.N,GPIO7*%
X114350000Y-40362500D03*
%TO.P,U1,10,IOVDD*%
%TO.N,+3V3*%
X113950000Y-40362500D03*
%TO.P,U1,11,GPIO8*%
%TO.N,GPIO8*%
X113550000Y-40362500D03*
%TO.P,U1,12,GPIO9*%
%TO.N,GPIO9*%
X113150000Y-40362500D03*
%TO.P,U1,13,GPIO10*%
%TO.N,GPIO10*%
X112750000Y-40362500D03*
%TO.P,U1,14,GPIO11*%
%TO.N,GPIO11*%
X112350000Y-40362500D03*
D28*
%TO.P,U1,15,GPIO12*%
%TO.N,GPIO12*%
X111512500Y-41200000D03*
%TO.P,U1,16,GPIO13*%
%TO.N,GPIO13*%
X111512500Y-41600000D03*
%TO.P,U1,17,GPIO14*%
%TO.N,GPIO14*%
X111512500Y-42000000D03*
%TO.P,U1,18,GPIO15*%
%TO.N,GPIO15*%
X111512500Y-42400000D03*
%TO.P,U1,19,TESTEN*%
%TO.N,GND*%
X111512500Y-42800000D03*
%TO.P,U1,20,XIN*%
%TO.N,XIN*%
X111512500Y-43200000D03*
%TO.P,U1,21,XOUT*%
%TO.N,XOUT*%
X111512500Y-43600000D03*
%TO.P,U1,22,IOVDD*%
%TO.N,+3V3*%
X111512500Y-44000000D03*
%TO.P,U1,23,DVDD*%
%TO.N,+1V1*%
X111512500Y-44400000D03*
%TO.P,U1,24,SWCLK*%
%TO.N,SWCLK*%
X111512500Y-44800000D03*
%TO.P,U1,25,SWD*%
%TO.N,SWD*%
X111512500Y-45200000D03*
%TO.P,U1,26,RUN*%
%TO.N,unconnected-(U1-RUN-Pad26)*%
X111512500Y-45600000D03*
%TO.P,U1,27,GPIO16*%
%TO.N,GPIO16*%
X111512500Y-46000000D03*
%TO.P,U1,28,GPIO17*%
%TO.N,GPIO17*%
X111512500Y-46400000D03*
D27*
%TO.P,U1,29,GPIO18*%
%TO.N,GPIO18*%
X112350000Y-47237500D03*
%TO.P,U1,30,GPIO19*%
%TO.N,GPIO19*%
X112750000Y-47237500D03*
%TO.P,U1,31,GPIO20*%
%TO.N,GPIO20*%
X113150000Y-47237500D03*
%TO.P,U1,32,GPIO21*%
%TO.N,GPIO21*%
X113550000Y-47237500D03*
%TO.P,U1,33,IOVDD*%
%TO.N,+3V3*%
X113950000Y-47237500D03*
%TO.P,U1,34,GPIO22*%
%TO.N,GPIO22*%
X114350000Y-47237500D03*
%TO.P,U1,35,GPIO23*%
%TO.N,GPIO23*%
X114750000Y-47237500D03*
%TO.P,U1,36,GPIO24*%
%TO.N,GPIO24*%
X115150000Y-47237500D03*
%TO.P,U1,37,GPIO25*%
%TO.N,unconnected-(U1-GPIO25-Pad37)*%
X115550000Y-47237500D03*
%TO.P,U1,38,GPIO26_ADC0*%
%TO.N,GPIO26_ADC0*%
X115950000Y-47237500D03*
%TO.P,U1,39,GPIO27_ADC1*%
%TO.N,GPIO26_ADC1*%
X116350000Y-47237500D03*
%TO.P,U1,40,GPIO28_ADC2*%
%TO.N,GPIO26_ADC2*%
X116750000Y-47237500D03*
%TO.P,U1,41,GPIO29_ADC3*%
%TO.N,GPIO26_ADC3*%
X117150000Y-47237500D03*
%TO.P,U1,42,IOVDD*%
%TO.N,+3V3*%
X117550000Y-47237500D03*
D28*
%TO.P,U1,43,ADC_AVDD*%
X118387500Y-46400000D03*
%TO.P,U1,44,VREG_IN*%
X118387500Y-46000000D03*
%TO.P,U1,45,VREG_VOUT*%
%TO.N,+1V1*%
X118387500Y-45600000D03*
%TO.P,U1,46,USB_DM*%
%TO.N,Net-(U1-USB_DM)*%
X118387500Y-45200000D03*
%TO.P,U1,47,USB_DP*%
%TO.N,Net-(U1-USB_DP)*%
X118387500Y-44800000D03*
%TO.P,U1,48,USB_VDD*%
%TO.N,+3V3*%
X118387500Y-44400000D03*
%TO.P,U1,49,IOVDD*%
X118387500Y-44000000D03*
%TO.P,U1,50,DVDD*%
%TO.N,+1V1*%
X118387500Y-43600000D03*
%TO.P,U1,51,QSPI_SD3*%
%TO.N,QSPI_SD3*%
X118387500Y-43200000D03*
%TO.P,U1,52,QSPI_SCLK*%
%TO.N,QSPI_SLK*%
X118387500Y-42800000D03*
%TO.P,U1,53,QSPI_SD0*%
%TO.N,QSPI_SD0*%
X118387500Y-42400000D03*
%TO.P,U1,54,QSPI_SD2*%
%TO.N,QSPI_SD2*%
X118387500Y-42000000D03*
%TO.P,U1,55,QSPI_SD1*%
%TO.N,QSPI_SD1*%
X118387500Y-41600000D03*
%TO.P,U1,56,QSPI_SS*%
%TO.N,QSPI_SS*%
X118387500Y-41200000D03*
D29*
%TO.P,U1,57,GND*%
%TO.N,GND*%
X114950000Y-43800000D03*
%TD*%
D30*
%TO.P,R2,1*%
%TO.N,Net-(J1-CC2)*%
X143950000Y-39045000D03*
%TO.P,R2,2*%
%TO.N,GND*%
X143950000Y-39860000D03*
%TD*%
D31*
%TO.P,Y1,1,1*%
%TO.N,Net-(C15-Pad2)*%
X102530000Y-41670000D03*
%TO.P,Y1,2,2*%
%TO.N,GND*%
X102530000Y-46970000D03*
%TO.P,Y1,3,3*%
%TO.N,XIN*%
X105630000Y-46970000D03*
%TO.P,Y1,4,4*%
%TO.N,GND*%
X105630000Y-41670000D03*
%TD*%
D23*
%TO.P,REF\u002A\u002A,1*%
%TO.N,N/C*%
X149500000Y-35940000D03*
D24*
X149500000Y-35940000D03*
%TD*%
D11*
%TO.P,C1,1*%
%TO.N,+3V3*%
X99622500Y-47630000D03*
%TO.P,C1,2*%
%TO.N,GND*%
X98807500Y-47630000D03*
%TD*%
%TO.P,C6,1*%
%TO.N,+3V3*%
X99562500Y-42970000D03*
%TO.P,C6,2*%
%TO.N,GND*%
X98747500Y-42970000D03*
%TD*%
%TO.P,C17,1*%
%TO.N,+3V3*%
X99617500Y-48400000D03*
%TO.P,C17,2*%
%TO.N,GND*%
X98802500Y-48400000D03*
%TD*%
D10*
%TO.P,R1,1*%
%TO.N,Net-(J1-CC1)*%
X142450000Y-48190000D03*
%TO.P,R1,2*%
%TO.N,GND*%
X143265000Y-48190000D03*
%TD*%
D11*
%TO.P,C16,1*%
%TO.N,GND*%
X108415000Y-43580000D03*
%TO.P,C16,2*%
%TO.N,XIN*%
X107600000Y-43580000D03*
%TD*%
%TO.P,C2,1*%
%TO.N,+3V3*%
X99570000Y-46780000D03*
%TO.P,C2,2*%
%TO.N,GND*%
X98755000Y-46780000D03*
%TD*%
D10*
%TO.P,C11,1*%
%TO.N,+1V1*%
X107560000Y-45300000D03*
%TO.P,C11,2*%
%TO.N,GND*%
X108375000Y-45300000D03*
%TD*%
D11*
%TO.P,C7,1*%
%TO.N,+3V3*%
X99567500Y-41430000D03*
%TO.P,C7,2*%
%TO.N,GND*%
X98752500Y-41430000D03*
%TD*%
D30*
%TO.P,R5,1*%
%TO.N,Net-(C15-Pad2)*%
X109250000Y-42662500D03*
%TO.P,R5,2*%
%TO.N,XOUT*%
X109250000Y-43477500D03*
%TD*%
D32*
%TO.P,U3,1,~{CS}*%
%TO.N,QSPI_SS*%
X129465000Y-40532500D03*
%TO.P,U3,2,DO/IO_{1}*%
%TO.N,QSPI_SD1*%
X128195000Y-40532500D03*
%TO.P,U3,3,~{WP}/IO_{2}*%
%TO.N,QSPI_SD2*%
X126925000Y-40532500D03*
%TO.P,U3,4,GND*%
%TO.N,GND*%
X125655000Y-40532500D03*
%TO.P,U3,5,DI/IO_{0}*%
%TO.N,QSPI_SD0*%
X125655000Y-47707500D03*
%TO.P,U3,6,CLK*%
%TO.N,QSPI_SLK*%
X126925000Y-47707500D03*
%TO.P,U3,7,~{HOLD}/~{RESET}/IO_{3}*%
%TO.N,QSPI_SD3*%
X128195000Y-47707500D03*
%TO.P,U3,8,VCC*%
%TO.N,+3V3*%
X129465000Y-47707500D03*
%TD*%
D16*
%TO.P,R4,1*%
%TO.N,USB_D-*%
X141150000Y-39847500D03*
%TO.P,R4,2*%
%TO.N,Net-(U1-USB_DM)*%
X141150000Y-39032500D03*
%TD*%
D33*
%TO.N,+3V3*%
X121921103Y-44131103D03*
X109827211Y-44214260D03*
X99600000Y-49120000D03*
X130680000Y-51280000D03*
X130400000Y-49650000D03*
%TO.N,GND*%
X110230000Y-43000000D03*
X124460000Y-40120000D03*
X101990000Y-44130000D03*
X139282815Y-39319915D03*
X134824265Y-51015735D03*
%TO.N,+1V1*%
X120780000Y-47210000D03*
X107830000Y-47290000D03*
%TO.N,XIN*%
X105719765Y-44819765D03*
X112650000Y-43470000D03*
%TO.N,SWD*%
X96300000Y-50717900D03*
%TO.N,SWCLK*%
X97120000Y-50316900D03*
%TO.N,Net-(U1-USB_DP)*%
X123100735Y-43800000D03*
X126400000Y-43050000D03*
%TO.N,Net-(U1-USB_DM)*%
X123760735Y-44449265D03*
X126276498Y-43840412D03*
%TO.N,QSPI_SS*%
X118350000Y-39600000D03*
X99080000Y-37907000D03*
%TO.N,QSPI_SD1*%
X127510000Y-42270000D03*
X124260000Y-41400000D03*
%TD*%
D34*
%TO.N,+3V3*%
X117750000Y-46000000D02*
X117298887Y-46451113D01*
X99617500Y-48400000D02*
X99617500Y-49102500D01*
X99587500Y-44070000D02*
X99587500Y-48370000D01*
X99562500Y-42970000D02*
X99562500Y-44045000D01*
X129465000Y-49684000D02*
X129300000Y-49849000D01*
X114250000Y-46250000D02*
X117097774Y-46250000D01*
X117099000Y-43411000D02*
X117099000Y-46251226D01*
X99587500Y-48370000D02*
X99617500Y-48400000D01*
X110041471Y-44000000D02*
X109827211Y-44214260D01*
X129465000Y-47707500D02*
X129465000Y-48790000D01*
X113950000Y-40362500D02*
X113950000Y-40940000D01*
X117350000Y-46400000D02*
X117298887Y-46451113D01*
X132930000Y-44280000D02*
X139230000Y-44280000D01*
X113950000Y-46750000D02*
X113950000Y-46550000D01*
X117550000Y-40897774D02*
X117550000Y-40362500D01*
X132930000Y-44550000D02*
X132930000Y-44280000D01*
X117317774Y-41130000D02*
X117550000Y-40897774D01*
X99572500Y-40670000D02*
X99572500Y-41425000D01*
X99570000Y-39100000D02*
X99570000Y-40667500D01*
X129465000Y-48790000D02*
X129465000Y-49684000D01*
X131270000Y-53390000D02*
X131270000Y-51870000D01*
X112250000Y-44000000D02*
X112500000Y-44250000D01*
X117550000Y-46702226D02*
X117298887Y-46451113D01*
X99562500Y-42225000D02*
X99557500Y-42220000D01*
X113950000Y-40940000D02*
X114140000Y-41130000D01*
X117550000Y-40362500D02*
X117550000Y-42960000D01*
X99567500Y-41430000D02*
X99567500Y-42210000D01*
X112500000Y-45250000D02*
X113950000Y-46700000D01*
X99570000Y-40667500D02*
X99572500Y-40670000D01*
X117099000Y-46251226D02*
X117298887Y-46451113D01*
X129300000Y-49849000D02*
X119486100Y-49849000D01*
X99562500Y-44045000D02*
X99587500Y-44070000D01*
X99562500Y-42970000D02*
X99562500Y-42225000D01*
X118387500Y-46000000D02*
X117750000Y-46000000D01*
X117097774Y-46250000D02*
X117551000Y-46703226D01*
X111512500Y-44000000D02*
X112250000Y-44000000D01*
X118387500Y-46400000D02*
X117350000Y-46400000D01*
X99617500Y-49102500D02*
X99600000Y-49120000D01*
X131270000Y-51870000D02*
X130680000Y-51280000D01*
X118387500Y-44400000D02*
X118387500Y-44000000D01*
X118387500Y-44400000D02*
X121652206Y-44400000D01*
X113950000Y-47237500D02*
X113950000Y-46750000D01*
X113950000Y-46700000D02*
X113950000Y-46750000D01*
X117550000Y-47912900D02*
X117550000Y-47237500D01*
X111512500Y-44000000D02*
X110041471Y-44000000D01*
X129465000Y-47707500D02*
X129772500Y-47707500D01*
X130400000Y-49650000D02*
X130325000Y-49650000D01*
X117550000Y-47237500D02*
X117550000Y-46702226D01*
X114140000Y-41130000D02*
X117317774Y-41130000D01*
X99567500Y-42210000D02*
X99557500Y-42220000D01*
X113950000Y-46550000D02*
X114250000Y-46250000D01*
X121652206Y-44400000D02*
X121921103Y-44131103D01*
X117298887Y-46451113D02*
X117097774Y-46250000D01*
X119486100Y-49849000D02*
X117550000Y-47912900D01*
X112500000Y-44250000D02*
X112500000Y-45250000D01*
X99572500Y-41425000D02*
X99567500Y-41430000D01*
X129772500Y-47707500D02*
X132930000Y-44550000D01*
X130325000Y-49650000D02*
X129465000Y-48790000D01*
X117550000Y-42960000D02*
X117099000Y-43411000D01*
%TO.N,GND*%
X107639000Y-41499000D02*
X105801000Y-41499000D01*
X145020000Y-48190000D02*
X146140000Y-47070000D01*
X98747500Y-39880000D02*
X98747500Y-40660000D01*
X98772500Y-44975000D02*
X98767500Y-44980000D01*
X112262500Y-54860000D02*
X121362500Y-54860000D01*
X96220000Y-47440000D02*
X97842500Y-47440000D01*
X98752500Y-42210000D02*
X98742500Y-42220000D01*
X144503550Y-49653550D02*
X148093550Y-49653550D01*
X150895000Y-48190000D02*
X150895000Y-39550000D01*
X98802500Y-48400000D02*
X98802500Y-47635000D01*
X125209000Y-33829000D02*
X126380000Y-35000000D01*
X98757500Y-41425000D02*
X98752500Y-41430000D01*
X102530000Y-44670000D02*
X101990000Y-44130000D01*
X97079000Y-54561000D02*
X98250000Y-53390000D01*
X111512500Y-42800000D02*
X113950000Y-42800000D01*
X121362500Y-54860000D02*
X123162500Y-53060000D01*
X137521000Y-54561000D02*
X142285160Y-54561000D01*
X110430000Y-42800000D02*
X111512500Y-42800000D01*
X146140000Y-40125000D02*
X146715000Y-39550000D01*
X102530000Y-46970000D02*
X102530000Y-44670000D01*
X146140000Y-40670000D02*
X144760000Y-40670000D01*
X112311000Y-33829000D02*
X125209000Y-33829000D01*
X146715000Y-48190000D02*
X146715000Y-47645000D01*
X97762500Y-53060000D02*
X99092500Y-54390000D01*
X96220000Y-47440000D02*
X96190000Y-47440000D01*
X132940000Y-48400000D02*
X132940000Y-49131470D01*
X144760000Y-40670000D02*
X143950000Y-39860000D01*
X108357500Y-46110000D02*
X108357500Y-42267500D01*
X98747500Y-45000000D02*
X98767500Y-44980000D01*
X135369000Y-33829000D02*
X136540000Y-35000000D01*
X110230000Y-43000000D02*
X110430000Y-42800000D01*
X98807500Y-47630000D02*
X98807500Y-46832500D01*
X146140000Y-40670000D02*
X146140000Y-40125000D01*
X99092500Y-54390000D02*
X109132500Y-54390000D01*
X136622730Y-41980000D02*
X139282815Y-39319915D01*
X136350000Y-53390000D02*
X137521000Y-54561000D01*
X97842500Y-47440000D02*
X98802500Y-48400000D01*
X111140000Y-35000000D02*
X109969000Y-33829000D01*
X98802500Y-47635000D02*
X98807500Y-47630000D01*
X98747500Y-42970000D02*
X98747500Y-44045000D01*
X132940000Y-49131470D02*
X134824265Y-51015735D01*
X107980000Y-41880000D02*
X107980000Y-41840000D01*
X142601000Y-54245160D02*
X142601000Y-51581000D01*
X98755000Y-45957500D02*
X98747500Y-45950000D01*
X148093550Y-49653550D02*
X149557100Y-48190000D01*
X98755000Y-46780000D02*
X98755000Y-45957500D01*
X126380000Y-35000000D02*
X127551000Y-33829000D01*
X107980000Y-41840000D02*
X107639000Y-41499000D01*
X91999000Y-51661000D02*
X91999000Y-53875045D01*
X146715000Y-47645000D02*
X146140000Y-47070000D01*
X110462500Y-53060000D02*
X112262500Y-54860000D01*
X98742500Y-42220000D02*
X98742500Y-42965000D01*
X91999000Y-53875045D02*
X92684955Y-54561000D01*
X96220000Y-47440000D02*
X91999000Y-51661000D01*
X124460000Y-40120000D02*
X125242500Y-40120000D01*
X92684955Y-54561000D02*
X97079000Y-54561000D01*
X98757500Y-40670000D02*
X98757500Y-41425000D01*
X149557100Y-48190000D02*
X150895000Y-48190000D01*
X98747500Y-40660000D02*
X98757500Y-40670000D01*
X98742500Y-42965000D02*
X98747500Y-42970000D01*
X108030000Y-41930000D02*
X107980000Y-41880000D01*
X102530000Y-44770000D02*
X105630000Y-41670000D01*
X98752500Y-41430000D02*
X98752500Y-42210000D01*
X99611000Y-33829000D02*
X98440000Y-35000000D01*
X127551000Y-33829000D02*
X135369000Y-33829000D01*
X98772500Y-44070000D02*
X98772500Y-44975000D01*
X108030000Y-41940000D02*
X108030000Y-41930000D01*
X142588550Y-51568550D02*
X144503550Y-49653550D01*
X102530000Y-46970000D02*
X102530000Y-44770000D01*
X98747500Y-45950000D02*
X98747500Y-45000000D01*
X134092500Y-54830000D02*
X135862500Y-53060000D01*
X123162500Y-53060000D02*
X124932500Y-54830000D01*
X98747500Y-44045000D02*
X98772500Y-44070000D01*
X108357500Y-42267500D02*
X108030000Y-41940000D01*
X143265000Y-48190000D02*
X145020000Y-48190000D01*
X105801000Y-41499000D02*
X105630000Y-41670000D01*
X132930000Y-41980000D02*
X136622730Y-41980000D01*
X125242500Y-40120000D02*
X125655000Y-40532500D01*
X96190000Y-47440000D02*
X92000000Y-43250000D01*
X113950000Y-42800000D02*
X114950000Y-43800000D01*
X109969000Y-33829000D02*
X99611000Y-33829000D01*
X111140000Y-35000000D02*
X112311000Y-33829000D01*
X142285160Y-54561000D02*
X142601000Y-54245160D01*
X98807500Y-46832500D02*
X98755000Y-46780000D01*
X109132500Y-54390000D02*
X110462500Y-53060000D01*
X124932500Y-54830000D02*
X134092500Y-54830000D01*
X142601000Y-51581000D02*
X142588550Y-51568550D01*
%TO.N,+1V1*%
X108976000Y-46378870D02*
X108976000Y-45914000D01*
X118387500Y-45600000D02*
X117850000Y-45600000D01*
X118387500Y-43600000D02*
X117852226Y-43600000D01*
X107739000Y-46360000D02*
X107739000Y-46378870D01*
X107542500Y-46182370D02*
X107720130Y-46360000D01*
X117850000Y-45600000D02*
X117500000Y-45250000D01*
X119180000Y-45600000D02*
X119280000Y-45700000D01*
X117500000Y-43952226D02*
X117852226Y-43600000D01*
X117500000Y-45250000D02*
X117500000Y-43952226D01*
X107971130Y-46611000D02*
X108743870Y-46611000D01*
X117852226Y-43600000D02*
X117853226Y-43599000D01*
X107542500Y-46110000D02*
X107542500Y-46182370D01*
X119280000Y-45710000D02*
X120780000Y-47210000D01*
X108976000Y-45914000D02*
X110490000Y-44400000D01*
X108743870Y-46611000D02*
X108976000Y-46378870D01*
X118387500Y-45600000D02*
X119180000Y-45600000D01*
X110490000Y-44400000D02*
X111512500Y-44400000D01*
X107720130Y-46360000D02*
X107739000Y-46360000D01*
X107542500Y-46110000D02*
X107542500Y-44572500D01*
X107542500Y-44572500D02*
X107585000Y-44530000D01*
X107830000Y-47290000D02*
X107542500Y-47002500D01*
X107739000Y-46378870D02*
X107971130Y-46611000D01*
X107542500Y-47002500D02*
X107542500Y-46110000D01*
X119280000Y-45700000D02*
X119280000Y-45710000D01*
%TO.N,VBUS*%
X148320000Y-48860000D02*
X148320000Y-46404000D01*
X148320000Y-46404000D02*
X147016000Y-45100000D01*
X147016000Y-45100000D02*
X147016000Y-45968999D01*
X141430000Y-52160000D02*
X144520000Y-49070000D01*
X148110000Y-49070000D02*
X148320000Y-48860000D01*
X133755000Y-48400000D02*
X133755000Y-47405000D01*
X146714999Y-41470000D02*
X146964999Y-41720000D01*
X133755000Y-48400000D02*
X136440000Y-48400000D01*
X146964999Y-41720000D02*
X147550000Y-41720000D01*
X136440000Y-48400000D02*
X141430000Y-53390000D01*
X147550000Y-41720000D02*
X147710000Y-41880000D01*
X147016000Y-45968999D02*
X146714999Y-46270000D01*
X147710000Y-44406000D02*
X147016000Y-45100000D01*
X146140000Y-41470000D02*
X146714999Y-41470000D01*
X147710000Y-41880000D02*
X147710000Y-44406000D01*
X146714999Y-46270000D02*
X146140000Y-46270000D01*
X144520000Y-49070000D02*
X148110000Y-49070000D01*
X133755000Y-47405000D02*
X132930000Y-46580000D01*
X141430000Y-53390000D02*
X141430000Y-52160000D01*
%TO.N,Net-(C15-Pad2)*%
X107555000Y-42780000D02*
X107237501Y-42780000D01*
X101179000Y-48305160D02*
X101179000Y-43021000D01*
X109250000Y-42345001D02*
X106923999Y-40019000D01*
X106370000Y-43321000D02*
X104250000Y-45441000D01*
X106696501Y-43321000D02*
X106370000Y-43321000D01*
X109250000Y-42662500D02*
X109250000Y-42345001D01*
X104181000Y-40019000D02*
X102530000Y-41670000D01*
X107237501Y-42780000D02*
X106696501Y-43321000D01*
X104250000Y-48240000D02*
X103860000Y-48630000D01*
X101179000Y-43021000D02*
X102530000Y-41670000D01*
X104250000Y-45441000D02*
X104250000Y-48240000D01*
X106923999Y-40019000D02*
X104181000Y-40019000D01*
X103860000Y-48630000D02*
X101503840Y-48630000D01*
X101503840Y-48630000D02*
X101179000Y-48305160D01*
%TO.N,XIN*%
X105630000Y-45550000D02*
X105630000Y-46970000D01*
X112380000Y-43200000D02*
X112650000Y-43470000D01*
X105630000Y-44909530D02*
X105630000Y-46970000D01*
X105719765Y-44819765D02*
X105630000Y-44909530D01*
X111512500Y-43200000D02*
X112380000Y-43200000D01*
X107600000Y-43580000D02*
X105630000Y-45550000D01*
%TO.N,USB_D+*%
X146748824Y-43120000D02*
X147016000Y-43387176D01*
X147016000Y-43852824D02*
X146748824Y-44120000D01*
X146748824Y-44120000D02*
X146140000Y-44120000D01*
X147016000Y-43387176D02*
X147016000Y-43852824D01*
X142200000Y-40197100D02*
X145122900Y-43120000D01*
X146140000Y-43120000D02*
X146748824Y-43120000D01*
X142200000Y-39860000D02*
X142200000Y-40197100D01*
X145122900Y-43120000D02*
X146140000Y-43120000D01*
%TO.N,Net-(J1-CC1)*%
X145320001Y-45120000D02*
X146140000Y-45120000D01*
X142450000Y-47990001D02*
X145320001Y-45120000D01*
X142450000Y-48190000D02*
X142450000Y-47990001D01*
%TO.N,USB_D-*%
X145264000Y-44354000D02*
X145530000Y-44620000D01*
X145531176Y-43620000D02*
X145264000Y-43887176D01*
X141150000Y-40240000D02*
X145264000Y-44354000D01*
X145530000Y-44620000D02*
X146140000Y-44620000D01*
X145264000Y-43887176D02*
X145264000Y-44354000D01*
X141150000Y-39847500D02*
X141150000Y-40240000D01*
X146140000Y-43620000D02*
X145531176Y-43620000D01*
%TO.N,Net-(J1-CC2)*%
X143950000Y-39045000D02*
X143877630Y-39045000D01*
X143449000Y-39473630D02*
X143449000Y-40879000D01*
X143449000Y-40879000D02*
X144690000Y-42120000D01*
X144690000Y-42120000D02*
X146140000Y-42120000D01*
X143877630Y-39045000D02*
X143449000Y-39473630D01*
%TO.N,SWD*%
X101219900Y-49867000D02*
X106263000Y-49867000D01*
X110641450Y-45761450D02*
X110049000Y-46353900D01*
X111512500Y-45200000D02*
X110930000Y-45200000D01*
X100170000Y-50916900D02*
X101219900Y-49867000D01*
X110930000Y-45200000D02*
X110641450Y-45488550D01*
X110641450Y-45488550D02*
X110641450Y-45761450D01*
X106911300Y-49867000D02*
X105710000Y-49867000D01*
X96300000Y-50717900D02*
X96499000Y-50916900D01*
X110049000Y-46353900D02*
X110049000Y-46729300D01*
X110049000Y-46729300D02*
X106911300Y-49867000D01*
X96499000Y-50916900D02*
X100170000Y-50916900D01*
%TO.N,SWCLK*%
X106745200Y-49466000D02*
X101440000Y-49466000D01*
X100202900Y-50316900D02*
X97120000Y-50316900D01*
X106790600Y-49420600D02*
X106745200Y-49466000D01*
X111512500Y-44800000D02*
X110760000Y-44800000D01*
X101053800Y-49466000D02*
X100349900Y-50169900D01*
X100349900Y-50169900D02*
X100202900Y-50316900D01*
X109390000Y-46821200D02*
X106790600Y-49420600D01*
X101440000Y-49466000D02*
X101053800Y-49466000D01*
X110760000Y-44800000D02*
X109390000Y-46170000D01*
X109390000Y-46170000D02*
X109390000Y-46821200D01*
%TO.N,GPIO0*%
X117150000Y-39820000D02*
X117970000Y-39000000D01*
X137620000Y-39000000D02*
X141620000Y-35000000D01*
X117970000Y-39000000D02*
X137620000Y-39000000D01*
X117150000Y-40362500D02*
X117150000Y-39820000D01*
%TO.N,GPIO7*%
X117061000Y-35849000D02*
X117911000Y-35849000D01*
X117911000Y-35849000D02*
X118760000Y-35000000D01*
X114350000Y-40362500D02*
X114350000Y-38560000D01*
X114350000Y-38560000D02*
X117061000Y-35849000D01*
%TO.N,GPIO11*%
X106730000Y-35000000D02*
X106060000Y-35000000D01*
X112092500Y-40362500D02*
X106730000Y-35000000D01*
X112350000Y-40362500D02*
X112092500Y-40362500D01*
%TO.N,GPIO3*%
X117659000Y-37551000D02*
X128909000Y-37551000D01*
X115950000Y-40362500D02*
X115950000Y-39260000D01*
X115950000Y-39260000D02*
X117659000Y-37551000D01*
X128909000Y-37551000D02*
X131460000Y-35000000D01*
%TO.N,GPIO10*%
X112750000Y-39150000D02*
X112750000Y-40362500D01*
X108600000Y-35000000D02*
X112750000Y-39150000D01*
%TO.N,GPIO8*%
X113550000Y-40362500D02*
X113550000Y-37670000D01*
X113550000Y-37670000D02*
X116220000Y-35000000D01*
%TO.N,GPIO6*%
X114750000Y-40362500D02*
X114750000Y-38730000D01*
X120500000Y-35000000D02*
X121300000Y-35000000D01*
X119250000Y-36250000D02*
X120500000Y-35000000D01*
X117230000Y-36250000D02*
X119250000Y-36250000D01*
X114750000Y-38730000D02*
X117230000Y-36250000D01*
%TO.N,GPIO2*%
X116350000Y-39460000D02*
X116350000Y-40362500D01*
X134000000Y-35000000D02*
X131048000Y-37952000D01*
X117858000Y-37952000D02*
X116350000Y-39460000D01*
X131048000Y-37952000D02*
X117858000Y-37952000D01*
%TO.N,GPIO14*%
X96600000Y-35000000D02*
X95900000Y-35000000D01*
X104956000Y-36906000D02*
X98506000Y-36906000D01*
X98506000Y-36906000D02*
X96600000Y-35000000D01*
X110050000Y-42000000D02*
X104956000Y-36906000D01*
X111512500Y-42000000D02*
X110050000Y-42000000D01*
%TO.N,GPIO9*%
X113150000Y-36350000D02*
X113680000Y-35820000D01*
X113150000Y-40362500D02*
X113150000Y-36350000D01*
X113680000Y-35820000D02*
X113680000Y-35000000D01*
%TO.N,GPIO12*%
X111512500Y-41200000D02*
X110420000Y-41200000D01*
X104220000Y-35000000D02*
X103520000Y-35000000D01*
X110420000Y-41200000D02*
X104220000Y-35000000D01*
%TO.N,GPIO4*%
X115550000Y-40362500D02*
X115550000Y-39090000D01*
X115550000Y-39090000D02*
X117490000Y-37150000D01*
X117490000Y-37150000D02*
X126770000Y-37150000D01*
X126770000Y-37150000D02*
X128920000Y-35000000D01*
%TO.N,GPIO15*%
X104787000Y-37307000D02*
X96357000Y-37307000D01*
X109880000Y-42400000D02*
X104787000Y-37307000D01*
X96357000Y-37307000D02*
X94050000Y-35000000D01*
X111512500Y-42400000D02*
X109880000Y-42400000D01*
X94050000Y-35000000D02*
X93360000Y-35000000D01*
%TO.N,GPIO5*%
X115150000Y-38900000D02*
X115150000Y-40362500D01*
X122090000Y-36750000D02*
X117300000Y-36750000D01*
X117300000Y-36750000D02*
X115150000Y-38900000D01*
X123840000Y-35000000D02*
X122090000Y-36750000D01*
%TO.N,GPIO13*%
X110252900Y-41600000D02*
X111512500Y-41600000D01*
X105157900Y-36505000D02*
X110252900Y-41600000D01*
X100980000Y-35000000D02*
X101710000Y-35000000D01*
X103215000Y-36505000D02*
X105157900Y-36505000D01*
X101710000Y-35000000D02*
X103215000Y-36505000D01*
%TO.N,GPIO1*%
X139080000Y-35000000D02*
X135600000Y-38480000D01*
X119530000Y-38480000D02*
X119390000Y-38480000D01*
X135600000Y-38480000D02*
X119530000Y-38480000D01*
X117897100Y-38480000D02*
X119530000Y-38480000D01*
X116750000Y-40362500D02*
X116750000Y-39627100D01*
X116750000Y-39627100D02*
X117897100Y-38480000D01*
%TO.N,GPIO26_ADC0*%
X126190000Y-53390000D02*
X124580000Y-51780000D01*
X124580000Y-51780000D02*
X119677100Y-51780000D01*
X118596100Y-51509000D02*
X115950000Y-48862900D01*
X119406100Y-51509000D02*
X118596100Y-51509000D01*
X115950000Y-48862900D02*
X115950000Y-47237500D01*
X119677100Y-51780000D02*
X119406100Y-51509000D01*
%TO.N,GPIO21*%
X108410000Y-53380000D02*
X108410000Y-53390000D01*
X113550000Y-48930000D02*
X111730000Y-50750000D01*
X113550000Y-47237500D02*
X113550000Y-48930000D01*
X111040000Y-50750000D02*
X108410000Y-53380000D01*
X111730000Y-50750000D02*
X111040000Y-50750000D01*
%TO.N,GPIO24*%
X118430000Y-51910000D02*
X119240000Y-51910000D01*
X120720000Y-53390000D02*
X121110000Y-53390000D01*
X115150000Y-47237500D02*
X115150000Y-48630000D01*
X115150000Y-48630000D02*
X118430000Y-51910000D01*
X119240000Y-51910000D02*
X120720000Y-53390000D01*
%TO.N,GPIO26_ADC1*%
X118740000Y-51080000D02*
X127190000Y-51080000D01*
X128730000Y-52620000D02*
X128730000Y-53390000D01*
X116350000Y-48690000D02*
X118740000Y-51080000D01*
X116350000Y-47237500D02*
X116350000Y-48690000D01*
X127190000Y-51080000D02*
X128730000Y-52620000D01*
%TO.N,GPIO23*%
X114750000Y-49570000D02*
X118570000Y-53390000D01*
X114750000Y-47237500D02*
X114750000Y-49570000D01*
%TO.N,GPIO22*%
X113620000Y-49600000D02*
X113490000Y-49730000D01*
X114350000Y-48870000D02*
X113620000Y-49600000D01*
X114350000Y-47237500D02*
X114350000Y-48870000D01*
X113490000Y-49730000D02*
X113490000Y-53390000D01*
%TO.N,GPIO26_ADC2*%
X133570000Y-51939000D02*
X133200000Y-51939000D01*
X116750000Y-48460000D02*
X118970000Y-50680000D01*
X128317022Y-51530000D02*
X128437022Y-51530000D01*
X132791000Y-50680000D02*
X133710238Y-51599238D01*
X129517022Y-51680000D02*
X129637022Y-51680000D01*
X118970000Y-50680000D02*
X122637022Y-50680000D01*
X133200000Y-52539000D02*
X133570000Y-52539000D01*
X133810000Y-52899000D02*
X133810000Y-53390000D01*
X129877022Y-51440000D02*
X129877022Y-50920000D01*
X116750000Y-47237500D02*
X116750000Y-48460000D01*
X122637022Y-50680000D02*
X127187022Y-50680000D01*
X129277022Y-50920000D02*
X129277022Y-51440000D01*
X132617022Y-50680000D02*
X132737022Y-50680000D01*
X128917022Y-50680000D02*
X129037022Y-50680000D01*
X131777022Y-50920000D02*
X131777022Y-51440000D01*
X130237022Y-50680000D02*
X130887022Y-50680000D01*
X132017022Y-51680000D02*
X132137022Y-51680000D01*
X127187022Y-50680000D02*
X127837022Y-50680000D01*
X130117022Y-50680000D02*
X130237022Y-50680000D01*
X128677022Y-51290000D02*
X128677022Y-50920000D01*
X132377022Y-51440000D02*
X132377022Y-50920000D01*
X132960000Y-52179000D02*
X132960000Y-52299000D01*
X130887022Y-50680000D02*
X131537022Y-50680000D01*
X133810000Y-52779000D02*
X133810000Y-52899000D01*
X132737022Y-50680000D02*
X132791000Y-50680000D01*
X133710238Y-51599238D02*
X133810000Y-51699000D01*
X128077022Y-50920000D02*
X128077022Y-51290000D01*
X129277022Y-51440000D02*
G75*
G03*
X129517022Y-51679978I239978J0D01*
G01*
X132137022Y-51680000D02*
G75*
G03*
X132377000Y-51440000I-22J240000D01*
G01*
X133570000Y-52539000D02*
G75*
G02*
X133810000Y-52779000I0J-240000D01*
G01*
X133200000Y-51939000D02*
G75*
G03*
X132960000Y-52179000I0J-240000D01*
G01*
X132960000Y-52299000D02*
G75*
G03*
X133200000Y-52539000I240000J0D01*
G01*
X132377022Y-50920000D02*
G75*
G02*
X132617022Y-50680022I239978J0D01*
G01*
X133810000Y-51699000D02*
G75*
G02*
X133570000Y-51939000I-240000J0D01*
G01*
X129877022Y-50920000D02*
G75*
G02*
X130117022Y-50680022I239978J0D01*
G01*
X129037022Y-50680000D02*
G75*
G02*
X129277000Y-50920000I-22J-240000D01*
G01*
X129637022Y-51680000D02*
G75*
G03*
X129877000Y-51440000I-22J240000D01*
G01*
X127837022Y-50680000D02*
G75*
G02*
X128077000Y-50920000I-22J-240000D01*
G01*
X131777022Y-51440000D02*
G75*
G03*
X132017022Y-51679978I239978J0D01*
G01*
X131537022Y-50680000D02*
G75*
G02*
X131777000Y-50920000I-22J-240000D01*
G01*
X128677022Y-50920000D02*
G75*
G02*
X128917022Y-50680022I239978J0D01*
G01*
X128437022Y-51530000D02*
G75*
G03*
X128677000Y-51290000I-22J240000D01*
G01*
X128077022Y-51290000D02*
G75*
G03*
X128317022Y-51529978I239978J0D01*
G01*
%TO.N,GPIO19*%
X103330000Y-53390000D02*
X105230000Y-51490000D01*
X112750000Y-47237500D02*
X112750000Y-47820000D01*
X112750000Y-47820000D02*
X109080000Y-51490000D01*
X109080000Y-51490000D02*
X105230000Y-51490000D01*
%TO.N,GPIO18*%
X100790000Y-53390000D02*
X100790000Y-52040000D01*
X108900000Y-51070000D02*
X112350000Y-47620000D01*
X112350000Y-47620000D02*
X112350000Y-47237500D01*
X101760000Y-51070000D02*
X108900000Y-51070000D01*
X100790000Y-52040000D02*
X101760000Y-51070000D01*
%TO.N,GPIO17*%
X95710000Y-51930000D02*
X95910000Y-51730000D01*
X95710000Y-53390000D02*
X95710000Y-51930000D01*
X100532900Y-51730000D02*
X101593900Y-50669000D01*
X101593900Y-50669000D02*
X107243500Y-50669000D01*
X107243500Y-50669000D02*
X111512500Y-46400000D01*
X95910000Y-51730000D02*
X100532900Y-51730000D01*
%TO.N,GPIO20*%
X113150000Y-48050000D02*
X109220000Y-51980000D01*
X113150000Y-47237500D02*
X113150000Y-48050000D01*
X109220000Y-51980000D02*
X106350000Y-51980000D01*
X106350000Y-51980000D02*
X105870000Y-52460000D01*
X105870000Y-52460000D02*
X105870000Y-53390000D01*
%TO.N,GPIO26_ADC3*%
X134610000Y-51650000D02*
X133210000Y-50250000D01*
X138580000Y-53390000D02*
X136840000Y-51650000D01*
X136840000Y-51650000D02*
X134610000Y-51650000D01*
X119320000Y-50250000D02*
X117150000Y-48080000D01*
X138890000Y-53390000D02*
X138580000Y-53390000D01*
X117150000Y-48080000D02*
X117150000Y-47237500D01*
X133210000Y-50250000D02*
X119320000Y-50250000D01*
%TO.N,GPIO16*%
X110450000Y-46520000D02*
X110450000Y-46895400D01*
X93170000Y-53390000D02*
X95242100Y-51317900D01*
X110970000Y-46000000D02*
X111512500Y-46000000D01*
X93170000Y-53390000D02*
X93170000Y-52730000D01*
X110450000Y-46520000D02*
X110970000Y-46000000D01*
X95242100Y-51317900D02*
X100377900Y-51317900D01*
X107077400Y-50268000D02*
X106420000Y-50268000D01*
X107462700Y-49882700D02*
X107077400Y-50268000D01*
X100377900Y-51317900D02*
X101427800Y-50268000D01*
X101427800Y-50268000D02*
X106702000Y-50268000D01*
X110450000Y-46895400D02*
X107462700Y-49882700D01*
%TO.N,Net-(U1-USB_DP)*%
X141405000Y-38250000D02*
X138937100Y-38250000D01*
X130829000Y-39401000D02*
X130270000Y-39960000D01*
X129230000Y-43090000D02*
X126440000Y-43090000D01*
X130270000Y-39960000D02*
X130270000Y-42050000D01*
X123100735Y-43800000D02*
X122100735Y-44800000D01*
X126440000Y-43090000D02*
X126400000Y-43050000D01*
X138937100Y-38250000D02*
X137786100Y-39401000D01*
X122100735Y-44800000D02*
X118387500Y-44800000D01*
X142200000Y-39045000D02*
X141405000Y-38250000D01*
X130270000Y-42050000D02*
X129230000Y-43090000D01*
X137786100Y-39401000D02*
X130829000Y-39401000D01*
%TO.N,Net-(U1-USB_DM)*%
X123010000Y-45200000D02*
X123760735Y-44449265D01*
X130671000Y-42216100D02*
X130671000Y-40126100D01*
X126276498Y-43840412D02*
X129046688Y-43840412D01*
X118387500Y-45200000D02*
X123010000Y-45200000D01*
X140774600Y-38657100D02*
X141150000Y-39032500D01*
X130995100Y-39802000D02*
X137952200Y-39802000D01*
X129046688Y-43840412D02*
X130671000Y-42216100D01*
X130671000Y-40126100D02*
X130995100Y-39802000D01*
X137952200Y-39802000D02*
X139097100Y-38657100D01*
X139097100Y-38657100D02*
X140774600Y-38657100D01*
%TO.N,XOUT*%
X109767500Y-43477500D02*
X109250000Y-43477500D01*
X109910000Y-43620000D02*
X109767500Y-43477500D01*
X111512500Y-43600000D02*
X109930000Y-43600000D01*
X109930000Y-43600000D02*
X109910000Y-43620000D01*
%TO.N,QSPI_SS*%
X99080000Y-37907000D02*
X98883000Y-37907000D01*
X118387500Y-39637500D02*
X118350000Y-39600000D01*
X98883000Y-37907000D02*
X98140000Y-38650000D01*
X129465000Y-40115000D02*
X128751000Y-39401000D01*
X98305000Y-38650000D02*
X98755000Y-39100000D01*
X129465000Y-40532500D02*
X129465000Y-40115000D01*
X98140000Y-38650000D02*
X98305000Y-38650000D01*
X118387500Y-41200000D02*
X118387500Y-39637500D01*
X128751000Y-39401000D02*
X120840000Y-39401000D01*
X97480000Y-38650000D02*
X98140000Y-38650000D01*
X120840000Y-39401000D02*
X119041000Y-41200000D01*
X119041000Y-41200000D02*
X118387500Y-41200000D01*
%TO.N,Net-(R6-Pad1)*%
X96220000Y-39095000D02*
X96665000Y-38650000D01*
X96220000Y-40940000D02*
X96220000Y-39095000D01*
%TO.N,QSPI_SLK*%
X125029000Y-45095000D02*
X125029000Y-48553990D01*
X123424800Y-42800000D02*
X123427800Y-42803000D01*
X124835900Y-42803000D02*
X125254000Y-43221100D01*
X125296010Y-48821000D02*
X126013990Y-48821000D01*
X126013990Y-48821000D02*
X126925000Y-47909990D01*
X123427800Y-42803000D02*
X124835900Y-42803000D01*
X125029000Y-48553990D02*
X125296010Y-48821000D01*
X125254000Y-44870000D02*
X125029000Y-45095000D01*
X118387500Y-42800000D02*
X123424800Y-42800000D01*
X126925000Y-47909990D02*
X126925000Y-47707500D01*
X125254000Y-43221100D02*
X125254000Y-44870000D01*
%TO.N,QSPI_SD1*%
X119280000Y-41600000D02*
X120450000Y-40430000D01*
X123290000Y-40430000D02*
X124260000Y-41400000D01*
X127510000Y-42270000D02*
X128195000Y-41585000D01*
X120450000Y-40430000D02*
X123290000Y-40430000D01*
X118387500Y-41600000D02*
X119280000Y-41600000D01*
X128195000Y-41585000D02*
X128195000Y-40532500D01*
%TO.N,QSPI_SD3*%
X125129910Y-49222000D02*
X127492999Y-49222000D01*
X123360000Y-43200000D02*
X124628000Y-44468000D01*
X128195000Y-48519999D02*
X128195000Y-47707500D01*
X127492999Y-49222000D02*
X128195000Y-48519999D01*
X124628000Y-44468000D02*
X124628000Y-48720090D01*
X124628000Y-48720090D02*
X125129910Y-49222000D01*
X118387500Y-43200000D02*
X123360000Y-43200000D01*
%TO.N,QSPI_SD2*%
X120610000Y-40840000D02*
X120619000Y-40831000D01*
X118387500Y-42000000D02*
X119130000Y-42000000D01*
X122590000Y-40831000D02*
X123760000Y-42001000D01*
X119450000Y-42000000D02*
X120610000Y-40840000D01*
X126805000Y-41465000D02*
X126925000Y-41344999D01*
X123760000Y-42001000D02*
X126269000Y-42001000D01*
X120619000Y-40831000D02*
X122590000Y-40831000D01*
X126925000Y-41344999D02*
X126925000Y-40532500D01*
X126269000Y-42001000D02*
X126805000Y-41465000D01*
X126269999Y-42000000D02*
X126805000Y-41465000D01*
X119130000Y-42000000D02*
X119450000Y-42000000D01*
%TO.N,QSPI_SD0*%
X125002000Y-42402000D02*
X125655000Y-43055000D01*
X118387500Y-42400000D02*
X123591900Y-42400000D01*
X125655000Y-43055000D02*
X125655000Y-47707500D01*
X123591900Y-42400000D02*
X123593900Y-42402000D01*
X123593900Y-42402000D02*
X125002000Y-42402000D01*
%TD*%
M02*
